<svg width="60" height="60" viewBox="0 0 60 60" fill="none" xmlns="http://www.w3.org/2000/svg">
<path d="M25.725 9.65002L4.54999 45C4.11341 45.7561 3.88241 46.6133 3.87996 47.4863C3.87752 48.3594 4.10372 49.2178 4.53606 49.9763C4.9684 50.7348 5.5918 51.3669 6.34426 51.8097C7.09672 52.2524 7.95199 52.4904 8.82499 52.5H51.175C52.048 52.4904 52.9033 52.2524 53.6557 51.8097C54.4082 51.3669 55.0316 50.7348 55.4639 49.9763C55.8963 49.2178 56.1225 48.3594 56.12 47.4863C56.1176 46.6133 55.8866 45.7561 55.45 45L34.275 9.65002C33.8293 8.91529 33.2018 8.30782 32.453 7.88623C31.7042 7.46464 30.8593 7.24316 30 7.24316C29.1407 7.24316 28.2958 7.46464 27.547 7.88623C26.7982 8.30782 26.1707 8.91529 25.725 9.65002Z" stroke="#E22C57" stroke-width="3" stroke-linecap="round" stroke-linejoin="round"/>
<path d="M30 22.5V32.5" stroke="#E22C57" stroke-width="3" stroke-linecap="round" stroke-linejoin="round"/>
<path d="M30 42.5H30.025" stroke="#E22C57" stroke-width="3" stroke-linecap="round" stroke-linejoin="round"/>
</svg>
