<svg width="63" height="63" viewBox="0 0 63 63" fill="none" xmlns="http://www.w3.org/2000/svg">
<rect x="1.5" y="4.5" width="57" height="57" rx="28.5" fill="white"/>
<g clip-path="url(#clip0_8832_6178)">
<path d="M29.9375 21C29.0733 21 28.375 21.6982 28.375 22.5625V23.5C24.8106 24.2227 22.125 27.377 22.125 31.1562V32.0742C22.125 34.3691 21.2803 36.5859 19.7569 38.3047L19.3955 38.71C18.9854 39.1689 18.8877 39.8281 19.1368 40.3896C19.3858 40.9512 19.9473 41.3125 20.5625 41.3125H39.3125C39.9278 41.3125 40.4844 40.9512 40.7383 40.3896C40.9922 39.8281 40.8897 39.1689 40.4795 38.71L40.1182 38.3047C38.5948 36.5859 37.75 34.374 37.75 32.0742V31.1562C37.75 27.377 35.0645 24.2227 31.5 23.5V22.5625C31.5 21.6982 30.8018 21 29.9375 21ZM32.1495 45.0869C32.7354 44.501 33.0625 43.7051 33.0625 42.875H29.9375H26.8125C26.8125 43.7051 27.1397 44.501 27.7256 45.0869C28.3116 45.6729 29.1075 46 29.9375 46C30.7676 46 31.5635 45.6729 32.1495 45.0869Z" fill="#01B792"/>
</g>
<rect x="38.5" y="1.5" width="23" height="23" rx="11.5" fill="#01B792"/>
<path d="M55.8681 8.88208C56.2099 9.22388 56.2099 9.77895 55.8681 10.1208L48.8681 17.1208C48.5263 17.4625 47.9712 17.4625 47.6294 17.1208L44.1294 13.6208C43.7876 13.279 43.7876 12.7239 44.1294 12.3821C44.4712 12.0403 45.0263 12.0403 45.3681 12.3821L48.2501 15.2614L54.6321 8.88208C54.9739 8.54028 55.529 8.54028 55.8708 8.88208H55.8681Z" fill="white"/>
<rect x="38.5" y="1.5" width="23" height="23" rx="11.5" stroke="white" stroke-width="3"/>
<rect x="1.5" y="4.5" width="57" height="57" rx="28.5" stroke="#01B792" stroke-width="3"/>
<defs>
<clipPath id="clip0_8832_6178">
<rect width="21.875" height="25" fill="white" transform="translate(19 21)"/>
</clipPath>
</defs>
</svg>
