<svg width="63" height="63" viewBox="0 0 63 63" fill="none" xmlns="http://www.w3.org/2000/svg">
<rect x="1.5" y="4.5" width="57" height="57" rx="28.5" fill="white"/>
<path d="M26.1641 21.8643C26.4277 21.332 26.9697 21 27.5605 21H33.4395C34.0303 21 34.5723 21.332 34.8359 21.8643L35.1875 22.5625H39.875C40.7393 22.5625 41.4375 23.2607 41.4375 24.125C41.4375 24.9893 40.7393 25.6875 39.875 25.6875H21.125C20.2607 25.6875 19.5625 24.9893 19.5625 24.125C19.5625 23.2607 20.2607 22.5625 21.125 22.5625H25.8125L26.1641 21.8643ZM21.125 27.25H39.875V42.875C39.875 44.5986 38.4736 46 36.75 46H24.25C22.5264 46 21.125 44.5986 21.125 42.875V27.25ZM25.8125 30.375C25.3828 30.375 25.0312 30.7266 25.0312 31.1562V42.0938C25.0312 42.5234 25.3828 42.875 25.8125 42.875C26.2422 42.875 26.5938 42.5234 26.5938 42.0938V31.1562C26.5938 30.7266 26.2422 30.375 25.8125 30.375ZM30.5 30.375C30.0703 30.375 29.7188 30.7266 29.7188 31.1562V42.0938C29.7188 42.5234 30.0703 42.875 30.5 42.875C30.9297 42.875 31.2812 42.5234 31.2812 42.0938V31.1562C31.2812 30.7266 30.9297 30.375 30.5 30.375ZM35.1875 30.375C34.7578 30.375 34.4062 30.7266 34.4062 31.1562V42.0938C34.4062 42.5234 34.7578 42.875 35.1875 42.875C35.6172 42.875 35.9688 42.5234 35.9688 42.0938V31.1562C35.9688 30.7266 35.6172 30.375 35.1875 30.375Z" fill="#01B792"/>
<rect x="38.5" y="1.5" width="23" height="23" rx="11.5" fill="#01B792"/>
<path d="M55.8681 8.88208C56.2099 9.22388 56.2099 9.77895 55.8681 10.1208L48.8681 17.1208C48.5263 17.4625 47.9712 17.4625 47.6294 17.1208L44.1294 13.6208C43.7876 13.279 43.7876 12.7239 44.1294 12.3821C44.4712 12.0403 45.0263 12.0403 45.3681 12.3821L48.2501 15.2614L54.6321 8.88208C54.9739 8.54028 55.529 8.54028 55.8708 8.88208H55.8681Z" fill="white"/>
<rect x="38.5" y="1.5" width="23" height="23" rx="11.5" stroke="white" stroke-width="3"/>
<rect x="1.5" y="4.5" width="57" height="57" rx="28.5" stroke="#01B792" stroke-width="3"/>
</svg>
