<svg width="75" height="75" viewBox="0 0 75 75" fill="none" xmlns="http://www.w3.org/2000/svg">
<path d="M32.1563 12.0625L5.68753 56.25C5.14181 57.1951 4.85306 58.2666 4.85 59.3579C4.84694 60.4492 5.12969 61.5223 5.67012 62.4704C6.21054 63.4185 6.9898 64.2086 7.93037 64.762C8.87094 65.3155 9.94003 65.613 11.0313 65.625H63.9688C65.06 65.613 66.1291 65.3155 67.0697 64.762C68.0103 64.2086 68.7895 63.4185 69.33 62.4704C69.8704 61.5223 70.1531 60.4492 70.1501 59.3579C70.147 58.2666 69.8583 57.1951 69.3125 56.25L42.8438 12.0625C42.2867 11.1441 41.5023 10.3847 40.5663 9.85776C39.6303 9.33077 38.5742 9.05392 37.5 9.05392C36.4259 9.05392 35.3698 9.33077 34.4338 9.85776C33.4978 10.3847 32.7134 11.1441 32.1563 12.0625Z" stroke="#E83937" stroke-width="4" stroke-linecap="round" stroke-linejoin="round"/>
<path d="M37.5 28.125V40.625" stroke="#E83937" stroke-width="4" stroke-linecap="round" stroke-linejoin="round"/>
<path d="M37.5 53.125H37.5313" stroke="#E83937" stroke-width="4" stroke-linecap="round" stroke-linejoin="round"/>
</svg>
