<svg width="16" height="16" viewBox="0 0 16 16" fill="none" xmlns="http://www.w3.org/2000/svg">
<g clip-path="url(#clip0_21056_7371)">
<path d="M1.41715 7.47427L14.56 1.49713M14.56 1.49713L12.1029 0.571411M14.56 1.49713L13.6457 3.95427M15.1429 15.4286H12.2857V7.42855C12.2857 7.277 12.3459 7.13166 12.4531 7.02449C12.5602 6.91733 12.7056 6.85713 12.8571 6.85713H14.5714C14.723 6.85713 14.8683 6.91733 14.9755 7.02449C15.0827 7.13166 15.1429 7.277 15.1429 7.42855V15.4286ZM9.42858 15.4286H6.57143V9.14284C6.57143 8.99129 6.63164 8.84594 6.7388 8.73878C6.84596 8.63161 6.99131 8.57141 7.14286 8.57141H8.85715C9.0087 8.57141 9.15404 8.63161 9.26121 8.73878C9.36837 8.84594 9.42858 8.99129 9.42858 9.14284V15.4286ZM3.71429 15.4286H0.857147V10.8571C0.857147 10.7056 0.917351 10.5602 1.02451 10.4531C1.13168 10.3459 1.27702 10.2857 1.42858 10.2857H3.14286C3.29441 10.2857 3.43976 10.3459 3.54692 10.4531C3.65409 10.5602 3.71429 10.7056 3.71429 10.8571V15.4286Z" stroke="#555555" stroke-linecap="round" stroke-linejoin="round"/>
</g>
<defs>
<clipPath id="clip0_21056_7371">
<rect width="16" height="16" fill="white"/>
</clipPath>
</defs>
</svg>
