<svg width="12" height="12" viewBox="0 0 12 12" fill="none" xmlns="http://www.w3.org/2000/svg">
<g clip-path="url(#clip0_4844_3885)">
<path d="M6 0.1875C9.21094 0.1875 11.8125 2.78906 11.8125 6C11.8125 9.21094 9.21094 11.8125 6 11.8125C2.78906 11.8125 0.1875 9.21094 0.1875 6C0.1875 2.78906 2.78906 0.1875 6 0.1875ZM3.28125 7.03125H6V8.69297C6 8.94375 6.30469 9.07031 6.48047 8.89219L9.15937 6.19922C9.26953 6.08906 9.26953 5.91328 9.15937 5.80313L6.48047 3.10781C6.30234 2.92969 6 3.05625 6 3.30703V4.96875H3.28125C3.12656 4.96875 3 5.09531 3 5.25V6.75C3 6.90469 3.12656 7.03125 3.28125 7.03125Z" fill="#555555"/>
</g>
<defs>
<clipPath id="clip0_4844_3885">
<rect width="12" height="12" fill="white"/>
</clipPath>
</defs>
</svg>
