<svg width="18" height="18" viewBox="0 0 18 18" fill="none" xmlns="http://www.w3.org/2000/svg">
<path d="M15.7607 8.37054V10.4894V13.6962C15.7607 14.0298 15.7755 14.3671 15.7312 14.6969C15.7386 14.64 15.746 14.587 15.7533 14.5301C15.7165 14.7993 15.6464 15.057 15.5468 15.3072L15.6058 15.1593C15.5284 15.3451 15.4399 15.5194 15.3293 15.6862C15.3035 15.7241 15.2776 15.762 15.2518 15.7962C15.2223 15.8341 15.1559 15.9099 15.2813 15.7583C15.2666 15.7734 15.2518 15.7924 15.2408 15.8113C15.1818 15.8871 15.1154 15.9591 15.049 16.0312C14.9826 16.0994 14.9163 16.16 14.8462 16.2207C14.8388 16.2283 14.7909 16.2738 14.7872 16.2738C14.7946 16.2738 14.9236 16.1714 14.8351 16.2359C14.7983 16.2662 14.7577 16.2927 14.7171 16.3192C14.5549 16.433 14.3852 16.5239 14.2046 16.6035C14.2525 16.5846 14.3004 16.5618 14.3484 16.5429C14.105 16.6452 13.8505 16.7173 13.5924 16.7552C13.6477 16.7476 13.6994 16.74 13.7547 16.7324C13.338 16.7893 12.9028 16.7627 12.4825 16.7627H10.1113H7.20184H4.7201C4.35872 16.7627 3.99734 16.7665 3.63964 16.7627C3.49951 16.7627 3.35938 16.7514 3.21926 16.7324C3.27457 16.74 3.3262 16.7476 3.38151 16.7552C3.11969 16.7173 2.86894 16.6452 2.62556 16.5429C2.67349 16.5618 2.72143 16.5846 2.76937 16.6035C2.58868 16.5239 2.41905 16.433 2.2568 16.3192C2.21992 16.2927 2.18305 16.2662 2.14986 16.2396C2.11298 16.2093 2.03923 16.1411 2.18673 16.27C2.17198 16.2548 2.15355 16.2396 2.13511 16.2283C2.06136 16.1676 1.99129 16.0994 1.92123 16.0312C1.85485 15.9629 1.79585 15.8947 1.73685 15.8227C1.72947 15.8151 1.68522 15.7658 1.68522 15.762C1.68522 15.7696 1.78479 15.9023 1.7221 15.8113C1.6926 15.7734 1.66679 15.7317 1.64097 15.69C1.53035 15.5232 1.44184 15.3489 1.3644 15.1631C1.38284 15.2124 1.40497 15.2617 1.42341 15.311C1.32384 15.0608 1.25378 14.7993 1.2169 14.5339C1.22428 14.5908 1.23165 14.6438 1.23903 14.7007C1.18371 14.2724 1.20953 13.8251 1.20953 13.393V10.9557V7.96495V5.41393C1.20953 5.04246 1.20584 4.67099 1.20953 4.30331C1.20953 4.15927 1.22059 4.01523 1.23903 3.8712C1.23165 3.92805 1.22428 3.98112 1.2169 4.03798C1.25378 3.76885 1.32384 3.5111 1.42341 3.26092C1.40497 3.3102 1.38284 3.35948 1.3644 3.40875C1.44184 3.22302 1.53035 3.04865 1.64097 2.88187C1.66679 2.84397 1.6926 2.80606 1.71841 2.77195C1.74791 2.73404 1.81429 2.65823 1.68891 2.80985C1.70366 2.79469 1.71841 2.77574 1.72947 2.75678C1.78848 2.68097 1.85485 2.60895 1.92123 2.53693C1.9876 2.4687 2.05398 2.40806 2.12405 2.34741C2.13142 2.33983 2.17936 2.29434 2.18305 2.29434C2.17567 2.29434 2.04661 2.39668 2.13511 2.33225C2.17198 2.30192 2.21255 2.27539 2.25311 2.24885C2.41536 2.13514 2.58499 2.04417 2.76568 1.96457L2.62187 2.02521C2.86525 1.92287 3.11969 1.85085 3.37782 1.81295C3.32251 1.82053 3.27088 1.82811 3.21557 1.83569C3.49582 1.79778 3.77977 1.80536 4.06371 1.80536H5.40968H8.61787H9.37383C9.69096 1.80536 9.99334 1.52108 9.97859 1.18372C9.96384 0.846364 9.71308 0.562075 9.37383 0.562075H7.94673H5.24742C4.71641 0.562075 4.18171 0.558285 3.6507 0.562075C2.30842 0.558285 1.01777 1.33534 0.405634 2.57484C0.140128 3.11309 0 3.70062 0 4.3071V4.67478V6.57383V9.31817V12.0473V13.9123V14.2534C0.00368758 14.8902 0.158566 15.5194 0.45726 16.0767C1.09152 17.2593 2.33792 17.9947 3.64702 17.9984C4.01946 18.0022 4.38822 17.9984 4.75698 17.9984H7.10965H9.87534H12.2243H13.3232C14.6397 17.9947 15.8972 17.2479 16.524 16.0501C16.8154 15.4929 16.9666 14.8751 16.9666 14.2458V13.6886V11.1566V8.75717V8.36675C16.9666 8.04076 16.69 7.72994 16.3618 7.7451C16.0373 7.76405 15.7607 8.02181 15.7607 8.37054Z" fill="#949494"/>
<path d="M17.5603 1.14961L16.8523 0.440785C16.2659 -0.146745 15.3182 -0.146745 14.7319 0.440785L8.37451 6.81643L11.2287 9.67827L17.5603 3.27609C18.1466 2.68856 18.1466 1.73714 17.5603 1.14961Z" fill="#949494"/>
<path d="M7.37146 8.49942V10.4591C7.37146 10.5956 7.48209 10.7093 7.62222 10.7093H9.57663C9.93433 10.7093 10.2773 10.5804 10.5465 10.353L7.72547 7.52525C7.50053 7.79817 7.37146 8.14311 7.37146 8.49942Z" fill="#949494"/>
</svg>
