<svg width="14" height="14" viewBox="0 0 14 14" fill="none" xmlns="http://www.w3.org/2000/svg">
<path d="M0.466667 0C0.208927 0 0 0.208927 0 0.466667V13.5333C0 13.7911 0.208942 14 0.466667 14H13.5333C13.7911 14 14 13.7911 14 13.5333C14 13.2756 13.7911 13.0667 13.5333 13.0667H0.933333V0.466667C0.933333 0.208927 0.724391 0 0.466667 0ZM9.8 3.57778C9.51835 3.57731 9.29865 3.83945 9.30904 4.06875C9.32179 4.31312 9.55562 4.52388 9.8 4.51111H11.1174L6.98056 8.4L5.49306 7.16041C5.39899 7.04853 5.25 6.98522 5.10417 6.99513C5.00015 7.0026 4.89908 7.04618 4.82222 7.11667L1.71111 9.91667C1.52003 10.0769 1.49618 10.4017 1.6625 10.5875C1.82884 10.7733 2.15297 10.7841 2.33333 10.6118L5.14792 8.07917L6.64515 9.32846C6.80983 9.51933 7.13779 9.53585 7.32083 9.3625L11.8222 5.13333V6.53333C11.8188 6.77988 12.0423 7.00485 12.2889 7.00485C12.5355 7.00485 12.759 6.77988 12.7556 6.53333V4.04444C12.7555 3.80011 12.5332 3.5778 12.2889 3.57778H9.8Z" fill="#3F71EB"/>
</svg>
