<svg width="18" height="18" viewBox="0 0 18 18" fill="none" xmlns="http://www.w3.org/2000/svg">
<path d="M0.75 7.83333H4.875M0.75 13.6667H4.875M0.75 2H14.775M15.27 14L17.25 16M16.26 10.5C16.26 9.30652 15.7906 8.16193 14.9552 7.31802C14.1197 6.47411 12.9865 6 11.805 6C10.6235 6 9.49031 6.47411 8.65484 7.31802C7.81936 8.16193 7.35 9.30652 7.35 10.5C7.35 11.6935 7.81936 12.8381 8.65484 13.682C9.49031 14.5259 10.6235 15 11.805 15C12.9865 15 14.1197 14.5259 14.9552 13.682C15.7906 12.8381 16.26 11.6935 16.26 10.5Z" stroke="#3F71EB" stroke-linecap="round" stroke-linejoin="round"/>
</svg>
