<svg width="16" height="16" viewBox="0 0 16 16" fill="none" xmlns="http://www.w3.org/2000/svg">
<g clip-path="url(#clip0_7401_3821)">
<path d="M15.5908 1.99614H11.2101V0.768374C11.2101 0.366123 10.8014 0.0449219 10.2777 0.0449219H5.72439C5.19762 0.0449219 4.79194 0.381132 4.79194 0.768374V1.99614H0.402159C0.214458 1.99614 0.0449219 2.16725 0.0449219 2.35637C0.0449219 2.54548 0.214458 2.71659 0.402159 2.71659H1.59497L2.52742 13.9736C2.52742 15.0813 3.42657 15.9549 4.54369 15.9549H11.4402C12.5573 15.9549 13.4565 15.0633 13.4565 13.9736L14.4041 2.71659H15.5908C15.7815 2.71659 15.9541 2.54548 15.9541 2.35637C15.9541 2.16725 15.7815 1.99614 15.5908 1.99614ZM5.50642 0.82541C5.52458 0.795391 5.72742 0.765372 5.72742 0.765372H10.2928C10.4109 0.765372 10.4805 0.816404 10.5138 0.816404V1.99614H5.51853V0.82541H5.50642ZM12.7541 13.9256V13.9436C12.7541 14.6491 12.1607 15.2374 11.4493 15.2374H4.53764C3.82619 15.2374 3.23281 14.6491 3.23281 13.9436L2.30036 2.68657H13.6532L12.7541 13.9256Z" fill="#949494"/>
<mask id="path-2-inside-1_7401_3821" fill="white">
<path d="M11.4377 16H4.54418C3.99016 16 3.47247 15.7899 3.08496 15.4116C2.69745 15.0304 2.4825 14.5201 2.4825 13.9737L1.55307 2.76173H0.402649C0.190728 2.76173 0 2.56961 0 2.35647C0 2.14334 0.190728 1.95122 0.402649 1.95122H4.74702V0.76848C4.74702 0.345216 5.186 0 5.72488 0H10.2751C10.8231 0 11.253 0.33621 11.253 0.76848V1.95122H15.5913C15.8062 1.95122 16 2.14334 16 2.35647C16 2.56961 15.8062 2.76173 15.5913 2.76173H14.4469L13.5024 13.9737C13.4993 15.0904 12.576 16 11.4377 16ZM0.402649 2.04128C0.239167 2.04128 0.0908231 2.19137 0.0908231 2.35647C0.0908231 2.52158 0.239167 2.67167 0.402649 2.67167H1.63784L1.64087 2.7137L2.57332 13.9707V13.9737C2.57332 15.0604 3.43917 15.9099 4.54418 15.9099H11.4407C12.5275 15.9099 13.4115 15.0394 13.4115 13.9737V13.9707L14.3622 2.67167H15.5913C15.7578 2.67167 15.9092 2.52158 15.9092 2.35647C15.9092 2.19137 15.7578 2.04128 15.5913 2.04128H11.1652V0.76848C11.1652 0.387242 10.7746 0.0900563 10.2781 0.0900563H5.72488C5.23444 0.0900563 4.83784 0.393246 4.83784 0.76848V2.04128H0.402649ZM4.53813 15.2795C3.80851 15.2795 3.18789 14.6672 3.18789 13.9437L2.25241 2.64165H13.7022L13.6991 2.68968L12.803 13.9257V13.9407C12.803 14.6672 12.1854 15.2795 11.4528 15.2795H4.53813ZM2.35232 2.73171L3.27871 13.9407V13.9437C3.27871 14.6191 3.85393 15.1925 4.53813 15.1925H11.4498C12.1309 15.1925 12.7092 14.6221 12.7092 13.9437V13.9227L13.6023 2.73171H2.35232ZM10.5597 2.04128H5.4736V0.870544H5.42819L5.46755 0.804503C5.47663 0.789493 5.4948 0.756473 5.72185 0.723452H5.72791H10.2933C10.3781 0.723452 10.4416 0.747467 10.481 0.762477C10.4931 0.76848 10.5082 0.774484 10.5143 0.774484H10.5597V0.819512V2.04128ZM5.56443 1.95122H10.4689V0.849531C10.4628 0.846529 10.4568 0.843527 10.4507 0.843527C10.4144 0.828518 10.3629 0.810507 10.2963 0.810507H5.73094C5.67039 0.819512 5.60076 0.834522 5.56443 0.846529V1.95122Z"/>
</mask>
<path d="M3.08496 15.4116L-10.9413 29.6687L-10.9131 29.6964L-10.8849 29.724L3.08496 15.4116ZM2.4825 13.9737H22.4825V13.1462L22.4141 12.3215L2.4825 13.9737ZM1.55307 2.76173L21.4847 1.10949L19.9638 -17.2383H1.55307V2.76173ZM4.74702 1.95122V21.9512H24.747V1.95122H4.74702ZM11.253 1.95122H-8.74702V21.9512H11.253V1.95122ZM14.4469 2.76173V-17.2383H-3.93901L-5.48248 1.08277L14.4469 2.76173ZM13.5024 13.9737L-6.42704 12.2948L-6.49536 13.1057L-6.49756 13.9195L13.5024 13.9737ZM1.63784 2.67167L21.5861 1.2346L20.2489 -17.3283H1.63784V2.67167ZM1.64087 2.7137L-18.3074 4.15076L-18.2997 4.25777L-18.2909 4.3647L1.64087 2.7137ZM2.57332 13.9707H22.5733V13.1438L22.5051 12.3197L2.57332 13.9707ZM13.4115 13.9707L-6.51805 12.294L-6.58846 13.1309V13.9707H13.4115ZM14.3622 2.67167V-17.3283H-4.02586L-5.56743 0.994949L14.3622 2.67167ZM11.1652 2.04128H-8.83482V22.0413H11.1652V2.04128ZM4.83784 2.04128V22.0413H24.8378V2.04128H4.83784ZM3.18789 13.9437H23.1879V13.1174L23.1197 12.2939L3.18789 13.9437ZM2.25241 2.64165V-17.3583H-19.4714L-17.6794 4.29142L2.25241 2.64165ZM13.7022 2.64165L33.6626 3.9L35.0027 -17.3583H13.7022V2.64165ZM13.6991 2.68968L33.6358 4.27972L33.6491 4.11397L33.6595 3.94803L13.6991 2.68968ZM12.803 13.9257L-7.13367 12.3357L-7.19697 13.1294V13.9257H12.803ZM2.35232 2.73171V-17.2683H-19.3688L-17.5797 4.37904L2.35232 2.73171ZM3.27871 13.9407H23.2787V13.1156L23.2108 12.2934L3.27871 13.9407ZM12.7092 13.9227L-7.22744 12.3317L-7.29082 13.1259V13.9227H12.7092ZM13.6023 2.73171L33.5389 4.32274L35.262 -17.2683H13.6023V2.73171ZM10.5597 2.04128V22.0413H30.5597V2.04128H10.5597ZM5.4736 2.04128H-14.5264V22.0413H5.4736V2.04128ZM5.4736 0.870544H25.4736V-19.1295H5.4736V0.870544ZM5.42819 0.870544L-11.7524 -9.36805L-29.7728 20.8705H5.42819V0.870544ZM5.46755 0.804503L-11.6436 -9.54962L-11.6785 -9.49197L-11.713 -9.43409L5.46755 0.804503ZM5.72185 0.723452V-19.2765H4.27518L2.84356 -19.0683L5.72185 0.723452ZM10.481 0.762477L19.3647 -17.1562L18.5046 -17.5826L17.6077 -17.9247L10.481 0.762477ZM10.5597 0.774484H30.5597V-19.2255H10.5597V0.774484ZM5.56443 1.95122H-14.4356V21.9512H5.56443V1.95122ZM10.4689 1.95122V21.9512H30.4689V1.95122H10.4689ZM10.4689 0.849531H30.4689V-11.5579L19.3526 -17.0692L10.4689 0.849531ZM10.4507 0.843527L2.81384 19.3281L6.48191 20.8435H10.4507V0.843527ZM5.73094 0.810507V-19.1895H4.25174L2.78863 -18.9719L5.73094 0.810507ZM5.56443 0.846529L-0.712009 -18.1431L-14.4356 -13.6072V0.846529H5.56443ZM11.4377 -4H4.54418V36H11.4377V-4ZM4.54418 -4C9.13056 -4 13.6495 -2.22447 17.0548 1.09925L-10.8849 29.724C-6.70461 33.8042 -1.15024 36 4.54418 36V-4ZM17.1112 1.15456C20.5353 4.52326 22.4825 9.14529 22.4825 13.9737H-17.5175C-17.5175 19.8949 -15.1405 25.5375 -10.9413 29.6687L17.1112 1.15456ZM22.4141 12.3215L21.4847 1.10949L-18.3786 4.41397L-17.4491 15.626L22.4141 12.3215ZM1.55307 -17.2383H0.402649V22.7617H1.55307V-17.2383ZM0.402649 -17.2383C6.36419 -17.2383 11.1867 -14.6013 14.3114 -11.4556C17.4381 -8.30774 20 -3.51374 20 2.35647H-20C-20 13.4885 -10.9813 22.7617 0.402649 22.7617V-17.2383ZM20 2.35647C20 8.22669 17.4381 13.0207 14.3114 16.1685C11.1867 19.3142 6.36419 21.9512 0.402649 21.9512V-18.0488C-10.9813 -18.0488 -20 -8.7756 -20 2.35647H20ZM0.402649 21.9512H4.74702V-18.0488H0.402649V21.9512ZM24.747 1.95122V0.76848H-15.253V1.95122H24.747ZM24.747 0.76848C24.747 7.89589 21.0079 13.1083 17.3935 15.9494C13.7989 18.7749 9.61285 20 5.72488 20V-20C-1.1063 -20 -15.253 -14.9184 -15.253 0.76848H24.747ZM5.72488 20H10.2751V-20H5.72488V20ZM10.2751 20C6.57616 20 2.34601 18.8778 -1.37718 15.9561C-5.20846 12.9497 -8.74702 7.67064 -8.74702 0.76848H31.253C31.253 -14.9544 17.081 -20 10.2751 -20V20ZM-8.74702 0.76848V1.95122H31.253V0.76848H-8.74702ZM11.253 21.9512H15.5913V-18.0488H11.253V21.9512ZM15.5913 21.9512C9.73084 21.9512 4.94201 19.3971 1.7942 16.2759C-1.3498 13.1584 -4 8.33381 -4 2.35647H36C36 -9.06189 26.6917 -18.0488 15.5913 -18.0488V21.9512ZM-4 2.35647C-4 -3.62086 -1.34981 -8.44547 1.79419 -11.5629C4.942 -14.6842 9.73083 -17.2383 15.5913 -17.2383V22.7617C26.6917 22.7617 36 13.7748 36 2.35647H-4ZM15.5913 -17.2383H14.4469V22.7617H15.5913V-17.2383ZM-5.48248 1.08277L-6.42704 12.2948L33.4318 15.6527L34.3763 4.44069L-5.48248 1.08277ZM-6.49756 13.9195C-6.46994 3.73169 1.83358 -4 11.4377 -4V36C23.3184 36 33.4686 26.4492 33.5023 14.028L-6.49756 13.9195ZM0.402649 -17.9587C-11.0146 -17.9587 -19.9092 -8.64509 -19.9092 2.35647H20.0908C20.0908 8.2603 17.5116 13.06 14.4056 16.2006C11.3041 19.3366 6.45778 22.0413 0.402649 22.0413V-17.9587ZM-19.9092 2.35647C-19.9092 13.358 -11.0146 22.6717 0.402649 22.6717V-17.3283C6.45778 -17.3283 11.3041 -14.6237 14.4056 -11.4877C17.5116 -8.34708 20.0908 -3.54736 20.0908 2.35647H-19.9092ZM0.402649 22.6717H1.63784V-17.3283H0.402649V22.6717ZM-18.3105 4.10874L-18.3074 4.15076L21.5892 1.27663L21.5861 1.2346L-18.3105 4.10874ZM-18.2909 4.3647L-17.3584 15.6217L22.5051 12.3197L21.5726 1.0627L-18.2909 4.3647ZM-17.4267 13.9707V13.9737H22.5733V13.9707H-17.4267ZM-17.4267 13.9737C-17.4267 26.4464 -7.26313 35.9099 4.54418 35.9099V-4.09006C14.1415 -4.09006 22.5733 3.67442 22.5733 13.9737H-17.4267ZM4.54418 35.9099H11.4407V-4.09006H4.54418V35.9099ZM11.4407 35.9099C23.2513 35.9099 33.4115 26.4043 33.4115 13.9737H-6.58846C-6.58846 3.67455 1.80372 -4.09006 11.4407 -4.09006V35.9099ZM33.4115 13.9737V13.9707H-6.58846V13.9737H33.4115ZM33.3411 15.6475L34.2917 4.34839L-5.56743 0.994949L-6.51805 12.294L33.3411 15.6475ZM14.3622 22.6717H15.5913V-17.3283H14.3622V22.6717ZM15.5913 22.6717C26.6433 22.6717 35.9092 13.7268 35.9092 2.35647H-4.09082C-4.09082 -3.68493 -1.39756 -8.52421 1.73062 -11.626C4.86315 -14.7321 9.66689 -17.3283 15.5913 -17.3283V22.6717ZM35.9092 2.35647C35.9092 -9.01385 26.6433 -17.9587 15.5913 -17.9587V22.0413C9.66689 22.0413 4.86315 19.445 1.73062 16.3389C-1.39756 13.2372 -4.09082 8.39788 -4.09082 2.35647H35.9092ZM15.5913 -17.9587H11.1652V22.0413H15.5913V-17.9587ZM31.1652 2.04128V0.76848H-8.83482V2.04128H31.1652ZM31.1652 0.76848C31.1652 -15.3336 16.4768 -19.9099 10.2781 -19.9099V20.0901C6.67273 20.0901 2.4975 19.0285 -1.23046 16.1816C-5.05742 13.2592 -8.83482 7.93671 -8.83482 0.76848H31.1652ZM10.2781 -19.9099H5.72488V20.0901H10.2781V-19.9099ZM5.72488 -19.9099C1.49046 -19.9099 -3.09629 -18.6232 -7.05164 -15.5985C-11.0323 -12.5545 -15.1622 -6.94328 -15.1622 0.76848H24.8378C24.8378 8.10501 20.9063 13.377 17.2465 16.1756C13.6121 18.955 9.46885 20.0901 5.72488 20.0901V-19.9099ZM-15.1622 0.76848V2.04128H24.8378V0.76848H-15.1622ZM4.83784 -17.9587H0.402649V22.0413H4.83784V-17.9587ZM4.53813 -4.72045C14.6357 -4.72045 23.1879 3.40421 23.1879 13.9437H-16.8121C-16.8121 25.9301 -7.01866 35.2795 4.53813 35.2795V-4.72045ZM23.1197 12.2939L22.1843 0.991882L-17.6794 4.29142L-16.7439 15.5935L23.1197 12.2939ZM2.25241 22.6417H13.7022V-17.3583H2.25241V22.6417ZM-6.2582 1.3833L-6.26123 1.43133L33.6595 3.94803L33.6626 3.9L-6.2582 1.3833ZM-6.23755 1.09964L-7.13367 12.3357L32.7397 15.5157L33.6358 4.27972L-6.23755 1.09964ZM-7.19697 13.9257V13.9407H32.803V13.9257H-7.19697ZM-7.19697 13.9407C-7.19697 3.46193 1.29996 -4.72045 11.4528 -4.72045V35.2795C23.0709 35.2795 32.803 25.8724 32.803 13.9407H-7.19697ZM11.4528 -4.72045H4.53813V35.2795H11.4528V-4.72045ZM-17.5797 4.37904L-16.6533 15.588L23.2108 12.2934L22.2844 1.08438L-17.5797 4.37904ZM-16.7213 13.9407V13.9437H23.2787V13.9407H-16.7213ZM-16.7213 13.9437C-16.7213 25.7934 -7.06277 35.1925 4.53813 35.1925V-4.8075C14.7706 -4.8075 23.2787 3.44488 23.2787 13.9437H-16.7213ZM4.53813 35.1925H11.4498V-4.8075H4.53813V35.1925ZM11.4498 35.1925C22.9852 35.1925 32.7092 25.8583 32.7092 13.9437H-7.29082C-7.29082 3.386 1.27666 -4.8075 11.4498 -4.8075V35.1925ZM32.7092 13.9437V13.9227H-7.29082V13.9437H32.7092ZM32.6458 15.5137L33.5389 4.32274L-6.33434 1.14067L-7.22744 12.3317L32.6458 15.5137ZM13.6023 -17.2683H2.35232V22.7317H13.6023V-17.2683ZM10.5597 -17.9587H5.4736V22.0413H10.5597V-17.9587ZM25.4736 2.04128V0.870544H-14.5264V2.04128H25.4736ZM5.4736 -19.1295H5.42819V20.8705H5.4736V-19.1295ZM22.6087 11.1091L22.6481 11.0431L-11.713 -9.43409L-11.7524 -9.36805L22.6087 11.1091ZM22.5787 11.1586C22.6731 11.0026 22.161 11.8824 21.4511 12.8256C20.6681 13.8658 19.7427 14.8832 18.6629 15.8298C16.5837 17.6524 14.553 18.6681 13.2366 19.2192C10.9072 20.1944 8.96852 20.4617 8.60014 20.5153L2.84356 -19.0683C2.24813 -18.9818 0.186848 -18.6815 -2.21064 -17.6777C-3.56114 -17.1123 -5.61224 -16.0835 -7.7045 -14.2495C-8.79089 -13.2971 -9.72098 -12.2745 -10.5075 -11.2295C-11.2211 -10.2815 -11.7358 -9.39736 -11.6436 -9.54962L22.5787 11.1586ZM5.72185 20.7235H5.72791V-19.2765H5.72185V20.7235ZM5.72791 20.7235H10.2933V-19.2765H5.72791V20.7235ZM10.2933 20.7235C6.51606 20.7235 3.70141 19.582 3.35429 19.4496L17.6077 -17.9247C17.1818 -18.0871 14.24 -19.2765 10.2933 -19.2765V20.7235ZM1.59728 18.6812C2.12044 18.9405 2.76955 19.2342 3.52916 19.5166C3.90218 19.6553 4.53973 19.8805 5.34949 20.0967C5.8095 20.2195 7.84439 20.7745 10.5143 20.7745V-19.2255C12.04 -19.2255 13.2506 -19.049 13.92 -18.9332C14.656 -18.8059 15.257 -18.6592 15.667 -18.5498C16.4718 -18.3349 17.1037 -18.1116 17.4706 -17.9752C18.2182 -17.6972 18.8536 -17.4096 19.3647 -17.1562L1.59728 18.6812ZM10.5143 20.7745H10.5597V-19.2255H10.5143V20.7745ZM-9.4403 0.774484V0.819512H30.5597V0.774484H-9.4403ZM-9.4403 0.819512V2.04128H30.5597V0.819512H-9.4403ZM5.56443 21.9512H10.4689V-18.0488H5.56443V21.9512ZM30.4689 1.95122V0.849531H-9.53113V1.95122H30.4689ZM19.3526 -17.0692C19.3526 -17.0692 19.3523 -17.0693 19.352 -17.0694C19.3517 -17.0696 19.3512 -17.0699 19.3506 -17.0702C19.3494 -17.0707 19.3475 -17.0717 19.3451 -17.0729C19.3405 -17.0752 19.333 -17.0789 19.3237 -17.0835C19.3055 -17.0924 19.2756 -17.1072 19.2386 -17.1252C19.1666 -17.1604 19.0456 -17.219 18.8945 -17.2892C18.6058 -17.4234 18.0908 -17.655 17.4307 -17.9005C16.1904 -18.3617 13.7024 -19.1565 10.4507 -19.1565V20.8435C7.20511 20.8435 4.72315 20.0502 3.48893 19.5913C2.33995 19.164 1.3931 18.673 1.58517 18.7682L19.3526 -17.0692ZM18.0876 -17.641C16.9528 -18.1099 14.1112 -19.1895 10.2963 -19.1895V20.8105C6.61463 20.8105 3.876 19.7669 2.81384 19.3281L18.0876 -17.641ZM10.2963 -19.1895H5.73094V20.8105H10.2963V-19.1895ZM2.78863 -18.9719C2.20661 -18.8853 0.871679 -18.6665 -0.712009 -18.1431L11.8409 19.8362C11.2807 20.0213 10.8281 20.1426 10.5793 20.2066C10.2982 20.2789 10.0554 20.3346 9.86326 20.3761C9.49533 20.4556 9.09966 20.5295 8.67324 20.5929L2.78863 -18.9719ZM-14.4356 0.846529V1.95122H25.5644V0.846529H-14.4356Z" fill="#949494" mask="url(#path-2-inside-1_7401_3821)"/>
<path d="M6.47686 11.824C6.47686 11.8245 6.47685 11.825 6.47685 11.8255C6.47681 11.8398 6.47607 11.8539 6.47467 11.8677C6.46787 11.9352 6.44533 11.9975 6.40914 12.0492C6.34808 12.1364 6.2482 12.1933 6.11962 12.1933C6.01539 12.1933 5.91677 12.1516 5.85018 12.0801C5.79684 12.0229 5.76406 11.9465 5.76541 11.8571L5.76534 11.8556L5.85018 11.8518L6.11962 11.8399L6.3895 11.8279L6.47686 11.824ZM6.47686 11.824L6.22262 6.09193L6.22255 6.09047C6.22255 6.08004 6.22202 6.06966 6.22098 6.05938C6.21306 5.98117 6.17577 5.90794 6.11962 5.85269C6.05136 5.78553 5.95523 5.74493 5.85018 5.75426C5.67285 5.75426 5.51173 5.90429 5.50978 6.09047C5.50967 6.10088 5.51006 6.11141 5.51098 6.12203C5.51102 6.12251 5.51106 6.123 5.5111 6.12349L5.76394 11.824H5.85018H6.11962H6.38915H6.47686Z" fill="#949494" stroke="#949494" stroke-width="32"/>
<path d="M5.46214 6.12466C5.4613 6.1143 5.4609 6.10394 5.46094 6.0936C5.46094 6.0926 5.46095 6.0916 5.46096 6.0906C5.46205 5.99784 5.49821 5.90722 5.56524 5.83544C5.56536 5.83531 5.56548 5.83517 5.5656 5.83504C5.56609 5.8345 5.56658 5.83396 5.56707 5.83342M5.46214 6.12466L5.84376 5.79944C5.84477 5.79943 5.84578 5.79942 5.84679 5.79942H5.84982M5.46214 6.12466L5.50925 6.12257L5.50925 6.12257L5.55313 6.12062M5.46214 6.12466L5.46233 6.12716M5.56707 5.83342C5.63954 5.75373 5.74147 5.70946 5.84344 5.70936L5.84376 5.71393L5.84679 5.75668L5.84982 5.79942M5.56707 5.83342C5.56707 5.83342 5.56707 5.83342 5.56707 5.83342ZM5.84982 5.79942C5.85028 5.79939 5.85074 5.79936 5.8512 5.79933C5.93542 5.79371 6.01361 5.82073 6.07683 5.87743C6.07684 5.87744 6.07686 5.87746 6.07688 5.87747C6.09274 5.89241 6.10694 5.9088 6.11926 5.9263C6.14845 5.96778 6.16709 6.01553 6.17228 6.06525C6.17265 6.06881 6.17295 6.07238 6.17318 6.07596C6.1735 6.08082 6.17368 6.08571 6.17374 6.0906C6.17375 6.09143 6.17375 6.09226 6.17375 6.09309C6.17375 6.09326 6.17375 6.09343 6.17375 6.0936M5.84982 5.79942V5.78264V5.70891C5.94865 5.70224 6.04225 5.73267 6.11926 5.79568C6.12518 5.80052 6.13099 5.80555 6.13671 5.81077C6.13695 5.81099 6.13719 5.81121 6.13742 5.81143C6.13772 5.8117 6.13802 5.81197 6.13831 5.81225C6.21065 5.87905 6.25433 5.96708 6.26298 6.05741C6.26337 6.06141 6.26368 6.06541 6.26393 6.06942C6.26433 6.07596 6.26454 6.08251 6.26457 6.08907C6.26457 6.08922 6.26457 6.08937 6.26457 6.08953L6.24061 6.0906L6.17375 6.0936M6.17375 6.0936H6.19693H6.20641H6.26471L6.28176 6.47777L6.28225 6.48896L6.18763 6.40262L6.1872 6.393L6.17382 6.09505L6.1738 6.09463L6.17375 6.0936ZM5.63184 5.89548C5.6319 5.89542 5.63196 5.89536 5.63201 5.8953L5.63184 5.89548ZM5.63184 5.89548C5.63149 5.89587 5.63113 5.89626 5.63078 5.89665C5.58085 5.95189 5.55405 6.01854 5.55238 6.0906C5.55236 6.0916 5.55234 6.0926 5.55233 6.0936C5.55222 6.10193 5.55244 6.11033 5.553 6.11879C5.55304 6.1194 5.55308 6.12001 5.55313 6.12062M5.63184 5.89548L5.56638 6.41941M5.56638 6.41941L5.55322 6.12259L5.5532 6.12217L5.55317 6.12147L5.55313 6.12062M5.56638 6.41941L5.4794 6.51175L5.46233 6.12716M5.56638 6.41941L5.46233 6.12716M5.55313 6.12062L5.52171 6.12289L5.49698 6.12467L5.49698 6.12467L5.48177 6.12576L5.46233 6.12716M5.80743 11.8542H5.78425H5.77478L5.80737 11.8528L5.80739 11.8532L5.80743 11.8542ZM5.80743 11.8542L5.73976 11.8572L5.71661 11.8582C5.7169 11.9659 5.76227 12.0616 5.84074 12.1334M5.80743 11.8542C5.80743 11.8552 5.80744 11.8562 5.80745 11.8572C5.80793 11.9077 5.82047 11.9549 5.84376 11.9962C5.84475 11.9979 5.84576 11.9997 5.84679 12.0014C5.84778 12.0031 5.84879 12.0047 5.84982 12.0064C5.86372 12.0287 5.8809 12.0491 5.90112 12.0672L5.84982 12.1235M5.84074 12.1334C5.84103 12.1337 5.84133 12.1339 5.84163 12.1342C5.84169 12.1342 5.84176 12.1343 5.84182 12.1344C5.84247 12.135 5.84311 12.1355 5.84376 12.1361C5.84477 12.137 5.84578 12.1379 5.84679 12.1388C5.8478 12.1397 5.84881 12.1406 5.84982 12.1414C5.9241 12.2052 6.01749 12.2384 6.11926 12.2384C6.18691 12.2384 6.24894 12.2238 6.30293 12.197C6.32927 12.184 6.35369 12.168 6.37591 12.1495C6.45725 12.0818 6.50912 11.9795 6.51764 11.8572C6.51771 11.8562 6.51778 11.8552 6.51784 11.8542C6.51847 11.8443 6.51882 11.8343 6.51887 11.8242C6.51888 11.8237 6.51888 11.8232 6.51888 11.8226C6.51888 11.8223 6.51888 11.822 6.51888 11.8216C6.51888 11.8215 6.51888 11.8213 6.51888 11.8212M5.84074 12.1334L5.84376 12.1301L5.84074 12.1334ZM6.51888 11.8212L6.51884 11.8202L6.50074 11.4123L6.41671 11.5041L6.43095 11.8212H6.49794H6.51888ZM6.51888 11.8212L6.45123 11.8242L6.43108 11.8251C6.43108 11.8252 6.43108 11.8254 6.43108 11.8255C6.43108 11.8258 6.43108 11.8262 6.43108 11.8265C6.43103 11.8359 6.43066 11.8451 6.43 11.8542C6.42993 11.8552 6.42985 11.8562 6.42977 11.8572C6.42427 11.9252 6.40177 11.9846 6.36617 12.0316C6.34652 12.0576 6.32287 12.0798 6.2959 12.0977C6.24674 12.1303 6.18653 12.1484 6.11926 12.1484C6.03752 12.1484 5.95881 12.1184 5.90128 12.0673C5.90127 12.0673 5.90125 12.0673 5.90123 12.0673L5.84982 12.1235M5.84982 12.1235L5.84679 12.1267L5.84982 12.1235ZM5.71501 11.8212L5.48074 6.54197L5.56753 6.44523L5.80597 11.8212H5.71501ZM6.18882 6.42911L6.28363 6.51995L6.49986 11.3926L6.41595 11.4872L6.18882 6.42911ZM6.41662 11.5021L6.4161 11.4905L6.50003 11.3964L6.50063 11.41L6.41662 11.5021Z" fill="#949494" stroke="#949494" stroke-width="32"/>
<path d="M10.2541 11.8572C10.2534 11.8659 10.2525 11.8745 10.2514 11.8829C10.2415 11.959 10.2134 12.0246 10.1693 12.0757V11.8761V11.8534L10.2541 11.8572ZM10.2541 11.8572L10.2541 11.8557L10.5075 6.14408L10.2357 6.12363H10.1693V11.8508L10.2067 11.8536L10.2541 11.8572ZM10.1693 5.75439C10.3716 5.76936 10.5077 5.93663 10.5084 6.12216L10.1693 6.10712V5.75439ZM10.1693 5.75439C10.0573 5.75439 9.95183 5.80247 9.88171 5.88396C9.83428 5.93907 9.80304 6.00946 9.79694 6.0906M10.1693 5.75439L10.1433 6.10597L9.88171 6.09436L9.79694 6.0906M9.79694 6.0906L9.79687 6.09207L9.84436 6.09417L9.79694 6.0906ZM9.54251 11.8256C9.53073 11.9732 9.58905 12.0892 9.69613 12.149L9.71908 11.8388L9.71948 11.8335L9.58067 11.8273L9.54251 11.8256ZM10.142 6.12363L9.88171 9.64114L9.72069 11.8171L9.54354 11.8037L9.79547 6.12363H9.88171H10.142Z" fill="#949494" stroke="#949494" stroke-width="32"/>
<mask id="path-7-inside-2_7401_3821" fill="white">
<path d="M9.88204 12.2385C9.76397 12.2385 9.66407 12.1995 9.59141 12.1244C9.52178 12.0494 9.48848 11.9413 9.49756 11.8212L9.75187 6.09064C9.77003 5.8745 9.94865 5.7124 10.1697 5.7124H10.1727C10.3907 5.73041 10.5541 5.90752 10.5541 6.12666L10.2998 11.8602C10.2817 12.0944 10.1212 12.2385 9.88204 12.2385ZM10.1697 5.79946C9.99709 5.79946 9.85783 5.92554 9.84269 6.09364L9.58838 11.8242C9.5793 11.9233 9.60655 12.0043 9.65801 12.0614C9.70948 12.1184 9.78819 12.1484 9.88204 12.1484C10.0728 12.1484 10.1939 12.0374 10.209 11.8542L10.4633 6.12366C10.4633 5.95555 10.3362 5.81447 10.1697 5.79946Z"/>
</mask>
<path d="M9.88204 12.2385C9.76397 12.2385 9.66407 12.1995 9.59141 12.1244C9.52178 12.0494 9.48848 11.9413 9.49756 11.8212L9.75187 6.09064C9.77003 5.8745 9.94865 5.7124 10.1697 5.7124H10.1727C10.3907 5.73041 10.5541 5.90752 10.5541 6.12666L10.2998 11.8602C10.2817 12.0944 10.1212 12.2385 9.88204 12.2385ZM10.1697 5.79946C9.99709 5.79946 9.85783 5.92554 9.84269 6.09364L9.58838 11.8242C9.5793 11.9233 9.60655 12.0043 9.65801 12.0614C9.70948 12.1184 9.78819 12.1484 9.88204 12.1484C10.0728 12.1484 10.1939 12.0374 10.209 11.8542L10.4633 6.12366C10.4633 5.95555 10.3362 5.81447 10.1697 5.79946Z" fill="#949494"/>
<path d="M9.59141 12.1244L-13.8666 33.8895L-13.6354 34.1388L-13.3989 34.383L9.59141 12.1244ZM9.49756 11.8212L41.4064 14.2348L41.444 13.7378L41.4661 13.2399L9.49756 11.8212ZM9.75187 6.09064L-22.1357 3.41071L-22.1887 4.04055L-22.2167 4.67198L9.75187 6.09064ZM10.1727 5.7124L12.8079 -26.1789L11.4925 -26.2876H10.1727V5.7124ZM10.5541 6.12666L42.5227 7.54458L42.5541 6.83597V6.12666H10.5541ZM10.2998 11.8602L42.204 14.3353L42.2449 13.8073L42.2684 13.2782L10.2998 11.8602ZM10.1697 5.79946L13.0425 -26.0713L11.609 -26.2005H10.1697V5.79946ZM9.84269 6.09364L-22.0284 3.22378L-22.0936 3.94827L-22.1258 4.67498L9.84269 6.09364ZM9.58838 11.8242L41.4547 14.7458L41.5235 13.9956L41.5569 13.2429L9.58838 11.8242ZM10.209 11.8542L42.1002 14.4905L42.1505 13.8825L42.1775 13.2729L10.209 11.8542ZM10.4633 6.12366L42.4319 7.54232L42.4633 6.83334V6.12366H10.4633ZM9.88204 -19.7615C17.1306 -19.7615 25.7783 -17.1613 32.5817 -10.1342L-13.3989 34.383C-6.45017 41.5602 2.39739 44.2385 9.88204 44.2385V-19.7615ZM33.0494 -9.64073C40.1441 -1.99424 41.9363 7.22964 41.4064 14.2348L-22.4113 9.40768C-22.9593 16.6529 -21.1005 26.093 -13.8666 33.8895L33.0494 -9.64073ZM41.4661 13.2399L41.7204 7.5093L-22.2167 4.67198L-22.471 10.4026L41.4661 13.2399ZM41.6395 8.77056C40.229 25.5535 26.1545 37.7124 10.1697 37.7124V-26.2876C-6.25725 -26.2876 -20.6889 -13.8045 -22.1357 3.41071L41.6395 8.77056ZM10.1697 37.7124H10.1727V-26.2876H10.1697V37.7124ZM7.53751 37.6037C-8.81725 36.2523 -21.4459 22.5812 -21.4459 6.12666H42.5541C42.5541 -10.7661 29.5986 -24.7915 12.8079 -26.1789L7.53751 37.6037ZM-21.4144 4.70874L-21.6687 10.4423L42.2684 13.2782L42.5227 7.54458L-21.4144 4.70874ZM-21.6043 9.38518C-21.0756 2.57027 -18.1439 -5.40573 -11.2763 -11.6092C-4.48708 -17.742 3.50466 -19.7615 9.88204 -19.7615V44.2385C16.4986 44.2385 24.6901 42.1469 31.624 35.8835C38.6361 29.5495 41.6571 21.3844 42.204 14.3353L-21.6043 9.38518ZM10.1697 -26.2005C-6.16366 -26.2005 -20.4924 -13.8343 -22.0284 3.22378L41.7137 8.9635C40.208 25.6853 26.1578 37.7995 10.1697 37.7995V-26.2005ZM-22.1258 4.67498L-22.3802 10.4056L41.5569 13.2429L41.8112 7.5123L-22.1258 4.67498ZM-22.278 8.90261C-22.9897 16.6653 -20.9169 25.9441 -14.0996 33.4991L33.4156 -9.3764C40.13 -1.93541 42.1483 7.18127 41.4547 14.7458L-22.278 8.90261ZM-14.0996 33.4991C-6.52328 41.8952 3.16191 44.1484 9.88204 44.1484V-19.8516C16.4145 -19.8516 25.9422 -17.6584 33.4156 -9.3764L-14.0996 33.4991ZM9.88204 44.1484C16.242 44.1484 24.5078 42.1962 31.5767 35.8027C38.7005 29.3595 41.5481 21.1697 42.1002 14.4905L-21.6822 9.21795C-21.1452 2.72191 -18.3657 -5.32079 -11.3539 -11.6627C-4.39711 -17.9549 3.71284 -19.8516 9.88204 -19.8516V44.1484ZM42.1775 13.2729L42.4319 7.54232L-21.5052 4.705L-21.7595 10.4356L42.1775 13.2729ZM42.4633 6.12366C42.4633 -10.3028 30.0006 -24.5427 13.0425 -26.0713L7.29677 37.6702C-9.32831 36.1716 -21.5367 22.2139 -21.5367 6.12366H42.4633Z" fill="#949494" mask="url(#path-7-inside-2_7401_3821)"/>
</g>
<defs>
<clipPath id="clip0_7401_3821">
<rect width="16" height="16" fill="white"/>
</clipPath>
</defs>
</svg>
