<svg width="12" height="14" viewBox="0 0 12 14" fill="none" xmlns="http://www.w3.org/2000/svg">
<path d="M5.00104 0.833497L5.00104 10.7168L1.36771 7.69183C1.19753 7.55038 0.978129 7.48233 0.757774 7.50265C0.537418 7.52296 0.334159 7.62998 0.19271 7.80016C0.0512612 7.97034 -0.0167904 8.18974 0.00352604 8.4101C0.0238425 8.63045 0.130863 8.83371 0.301043 8.97516L5.30104 13.1418C5.34081 13.1699 5.38259 13.1949 5.42604 13.2168C5.46771 13.2168 5.49271 13.2168 5.53438 13.2752C5.62993 13.3129 5.73164 13.3327 5.83438 13.3335C5.93712 13.3327 6.03883 13.3129 6.13438 13.2752C6.17604 13.2752 6.20104 13.2752 6.24271 13.2168C6.28616 13.1949 6.32794 13.1699 6.36771 13.1418L11.3677 8.97516C11.4618 8.89681 11.5374 8.79869 11.5893 8.68779C11.6411 8.57689 11.6679 8.45592 11.6677 8.3335C11.6681 8.13879 11.6003 7.95009 11.476 7.80016C11.4061 7.71578 11.3202 7.64603 11.2232 7.5949C11.1263 7.54378 11.0202 7.51228 10.911 7.50222C10.8019 7.49215 10.6918 7.50372 10.5871 7.53626C10.4825 7.56879 10.3852 7.62166 10.301 7.69183L6.66771 10.7168L6.66771 0.833497C6.66771 0.612483 6.57991 0.400521 6.42363 0.24424C6.26735 0.08796 6.05539 0.000163767 5.83438 0.000163777C5.61336 0.000163787 5.4014 0.08796 5.24512 0.244241C5.08884 0.400521 5.00104 0.612483 5.00104 0.833497Z" fill="#949494" fill-opacity="0.3"/>
</svg>
