<svg width="12" height="14" viewBox="0 0 12 14" fill="none" xmlns="http://www.w3.org/2000/svg">
<path d="M5.00104 0.833253L5.00104 10.7166L1.36771 7.69159C1.19753 7.55014 0.978129 7.48209 0.757774 7.5024C0.537418 7.52272 0.334159 7.62974 0.19271 7.79992C0.0512612 7.9701 -0.0167904 8.1895 0.00352604 8.40986C0.0238425 8.63021 0.130863 8.83347 0.301043 8.97492L5.30104 13.1416C5.34081 13.1696 5.38259 13.1947 5.42604 13.2166C5.46771 13.2166 5.49271 13.2166 5.53438 13.2749C5.62993 13.3127 5.73164 13.3325 5.83438 13.3333C5.93712 13.3325 6.03883 13.3127 6.13438 13.2749C6.17604 13.2749 6.20104 13.2749 6.24271 13.2166C6.28616 13.1947 6.32794 13.1696 6.36771 13.1416L11.3677 8.97492C11.4618 8.89657 11.5374 8.79845 11.5893 8.68755C11.6411 8.57664 11.6679 8.45568 11.6677 8.33325C11.6681 8.13854 11.6003 7.94984 11.476 7.79992C11.4061 7.71554 11.3202 7.64578 11.2232 7.59466C11.1263 7.54353 11.0202 7.51203 10.911 7.50197C10.8019 7.49191 10.6918 7.50348 10.5871 7.53601C10.4825 7.56855 10.3852 7.62142 10.301 7.69159L6.66771 10.7166L6.66771 0.833253C6.66771 0.612239 6.57991 0.400277 6.42363 0.243996C6.26735 0.0877158 6.05539 -8.03733e-05 5.83438 -8.03637e-05C5.61336 -8.0354e-05 5.4014 0.0877159 5.24512 0.243996C5.08884 0.400277 5.00104 0.612239 5.00104 0.833253Z" fill="#3F71EB"/>
</svg>
