<svg width="16" height="16" viewBox="0 0 16 16" fill="none" xmlns="http://www.w3.org/2000/svg">
<path d="M12.6349 6.96971L10.1278 4.46212C9.85554 4.18979 9.57974 3.91745 9.30746 3.64158C9.21553 3.54963 9.12359 3.45767 9.03165 3.36218C8.93972 3.27022 8.85132 3.1818 8.75938 3.08984C8.42346 3.42584 8.084 3.76537 7.74808 4.10137L6.2877 5.56207C5.72901 6.12088 5.17739 6.67262 4.62224 7.2279C4.06708 7.78318 3.51193 8.33846 2.95677 8.89373L1.51054 10.3403C1.17108 10.6798 0.835161 11.0158 0.495704 11.3553L0.212822 11.6383C0.106741 11.7444 0.014805 11.8293 0.00773294 12.0026C-0.00994715 12.5048 0.00773294 13.0106 0.011269 13.5163C0.011269 14.1742 0.014805 14.8285 0.014805 15.4863V15.603C0.014805 15.8117 0.191606 15.9886 0.400231 15.9886C0.902346 15.9886 1.40092 15.9886 1.90304 15.9921C2.56074 15.9921 3.21844 15.9956 3.87967 15.9956C3.93979 15.9956 3.99636 15.9992 4.05294 15.9886C4.14841 15.9744 4.22974 15.9249 4.29692 15.8612L12.7303 7.42596C12.7904 7.36584 12.8506 7.30571 12.9142 7.24558C12.8187 7.15363 12.7268 7.06167 12.6349 6.96971Z" fill="#949494"/>
<path d="M15.6719 2.90232C15.5198 2.75023 15.3713 2.60169 15.2158 2.44607C14.6818 1.91201 14.1514 1.38149 13.6175 0.847436C13.4548 0.684744 13.2851 0.518514 13.1224 0.352285C13.0234 0.253254 12.9138 0.164834 12.7865 0.108245C12.4435 -0.0473738 12.0227 -0.043837 11.7045 0.175445C11.5312 0.295696 11.3898 0.458389 11.2413 0.603397C10.9902 0.85451 10.7427 1.10209 10.4916 1.3532C10.1875 1.65736 9.8799 1.96153 9.57227 2.26923L13.1825 5.87677C13.2745 5.96872 13.3629 6.05714 13.4548 6.1491L13.7271 6.42143L15.7002 4.4479C16.1139 4.0058 16.0962 3.33027 15.6719 2.90232Z" fill="#949494"/>
</svg>
