<svg width="38" height="28" viewBox="0 0 38 28" fill="none" xmlns="http://www.w3.org/2000/svg">
<g clip-path="url(#clip0_13348_1758)">
<path d="M3.5 0C1.56953 0 0 1.56953 0 3.5V24.5C0 26.4305 1.56953 28 3.5 28H17.5C19.4305 28 21 26.4305 21 24.5V8.75H14C13.032 8.75 12.25 7.96797 12.25 7V0H3.5ZM14 0V7H21L14 0ZM3.5 4.375C3.5 3.89375 3.89375 3.5 4.375 3.5H7.875C8.35625 3.5 8.75 3.89375 8.75 4.375C8.75 4.85625 8.35625 5.25 7.875 5.25H4.375C3.89375 5.25 3.5 4.85625 3.5 4.375ZM3.5 7.875C3.5 7.39375 3.89375 7 4.375 7H7.875C8.35625 7 8.75 7.39375 8.75 7.875C8.75 8.35625 8.35625 8.75 7.875 8.75H4.375C3.89375 8.75 3.5 8.35625 3.5 7.875ZM10.5 11.8125C10.9812 11.8125 11.375 12.2063 11.375 12.6875V13.6336C11.8398 13.6992 12.2883 13.8031 12.693 13.9125C13.1578 14.0383 13.4367 14.5141 13.3109 14.9844C13.1852 15.4547 12.7094 15.7281 12.2391 15.6023C11.632 15.4383 11.0359 15.318 10.4836 15.3125C10.0242 15.307 9.53203 15.4109 9.19297 15.6133C8.88125 15.7992 8.75 16.0125 8.75 16.3133C8.75 16.5156 8.82109 16.6687 9.14922 16.8656C9.52656 17.0898 10.057 17.2539 10.7461 17.4617L10.7734 17.4672C11.3914 17.6531 12.157 17.8828 12.7586 18.2656C13.4203 18.6812 13.9836 19.343 14 20.3547C14.0164 21.4102 13.475 22.1758 12.7477 22.6297C12.3266 22.8922 11.8508 23.0453 11.375 23.1273V24.0625C11.375 24.5438 10.9812 24.9375 10.5 24.9375C10.0188 24.9375 9.625 24.5438 9.625 24.0625V23.0891C9.0125 22.9742 8.43828 22.7773 7.93516 22.6023C7.82031 22.5641 7.70547 22.5258 7.59609 22.4875C7.13672 22.3344 6.89062 21.8367 7.04375 21.3828C7.19688 20.9289 7.69453 20.6773 8.14844 20.8305C8.28516 20.8742 8.41094 20.918 8.53672 20.9617C9.28047 21.2133 9.88203 21.4211 10.5219 21.4375C11.0195 21.4539 11.5008 21.3445 11.818 21.1477C12.0969 20.9727 12.25 20.7484 12.2445 20.382C12.2391 20.1305 12.1461 19.9555 11.8234 19.7477C11.4516 19.5125 10.9211 19.343 10.2375 19.1352L10.15 19.1078C9.54844 18.9273 8.82109 18.7086 8.24687 18.3586C7.59063 17.9648 7.01094 17.325 7.00547 16.3188C7 15.2578 7.59609 14.525 8.30703 14.1039C8.71719 13.8633 9.17109 13.7102 9.625 13.6281V12.6875C9.625 12.2063 10.0188 11.8125 10.5 11.8125Z" fill="#949494"/>
</g>
<g clip-path="url(#clip1_13348_1758)">
<path d="M25.1973 15.1973L24.2012 14.2012C23.7588 13.7588 23 14.0723 23 14.6963V17.9219C23 18.3115 23.3135 18.625 23.7031 18.625H26.9287C27.5557 18.625 27.8691 17.8662 27.4268 17.4238L26.5244 16.5215C27.541 15.5049 28.9473 14.875 30.5 14.875C33.6055 14.875 36.125 17.3945 36.125 20.5C36.125 23.6055 33.6055 26.125 30.5 26.125C29.3047 26.125 28.1973 25.7529 27.2861 25.1172C26.8613 24.8213 26.2783 24.9238 25.9795 25.3486C25.6807 25.7734 25.7861 26.3564 26.2109 26.6553C27.4297 27.502 28.9092 28 30.5 28C34.6426 28 38 24.6426 38 20.5C38 16.3574 34.6426 13 30.5 13C28.4287 13 26.5537 13.8408 25.1973 15.1973ZM30.5 16.75C30.1104 16.75 29.7969 17.0635 29.7969 17.4531V20.5C29.7969 20.6875 29.8701 20.8662 30.002 20.998L32.1113 23.1074C32.3867 23.3828 32.832 23.3828 33.1045 23.1074C33.377 22.832 33.3799 22.3867 33.1045 22.1143L31.2002 20.21V17.4531C31.2002 17.0635 30.8867 16.75 30.4971 16.75H30.5Z" fill="#949494"/>
</g>
<defs>
<clipPath id="clip0_13348_1758">
<rect width="21" height="28" fill="white"/>
</clipPath>
<clipPath id="clip1_13348_1758">
<rect width="15" height="15" fill="white" transform="translate(23 13)"/>
</clipPath>
</defs>
</svg>
