<?xml version="1.0" encoding="utf-8"?>
<!-- Generator: Adobe Illustrator 22.1.0, SVG Export Plug-In . SVG Version: 6.00 Build 0)  -->
<svg version="1.1" id="Layer_1" xmlns="http://www.w3.org/2000/svg" xmlns:xlink="http://www.w3.org/1999/xlink" x="0px" y="0px"
	 viewBox="0 0 1200 1200" style="enable-background:new 0 0 1200 1200;" xml:space="preserve">
<style type="text/css">
	.st0{fill:#37CDB1;}
</style>
<g>
	<path class="st0" d="M904.4,73v176.8l6.2,1c32.9,5.3,56.8,33.2,56.8,66.4c0,33.2-23.9,61.1-56.8,66.4l-6.2,1v232.5l6.2,1
		c32.9,5.3,56.8,33.2,56.8,66.4s-23.9,61.1-56.8,66.4l-6.2,1v106.5l6.2,1c32.9,5.3,56.8,33.2,56.8,66.4c0,33.2-23.9,61.1-56.8,66.4
		l-6.2,1v133.6h275.9V73H904.4z M1165.5,1112.1H919.2v-106.4c36.9-8.8,63-41.4,63-79.8c0-38.4-26.1-71-63-79.8v-81.7
		c36.9-8.9,63-41.5,63-79.8c0-38.4-26.1-71-63-79.8V397.1c36.9-8.8,63-41.4,63-79.8c0-38.3-26.1-70.9-63-79.7V87.8h246.3V1112.1z"/>
	<path class="st0" d="M608.5,206.6l6.2,1c32.9,5.3,56.8,33.2,56.8,66.4c0,33.2-23.9,61.1-56.8,66.4l-6.2,1v106.5l6.2,1
		c32.9,5.3,56.8,33.3,56.8,66.4c0,33.2-23.9,61.1-56.8,66.4l-6.2,1v232.5l6.2,1c32.9,5.3,56.8,33.3,56.8,66.4
		c0,33.2-23.9,61.1-56.8,66.4l-6.2,1v176.8h286.8V993.4l-6.2-1c-32.9-5.3-56.8-33.3-56.8-66.4c0-33.2,23.9-61.1,56.8-66.4l6.2-1V752
		l-6.2-1c-32.9-5.3-56.8-33.2-56.8-66.4c0-33.2,23.9-61.1,56.8-66.4l6.2-1V384.7l-6.2-1c-32.9-5.3-56.8-33.3-56.8-66.4
		s23.9-61.1,56.8-66.4l6.2-1V73H608.5V206.6z M623.4,87.8h257.2v149.7c-36.9,8.8-63,41.4-63,79.8c0,38.4,26.1,71,63,79.8v207.8
		c-36.9,8.8-63,41.4-63,79.8s26.1,71,63,79.8v81.8c-36.9,8.8-63,41.4-63,79.8c0,38.3,26.1,71,63,79.8v106.3H623.4V962.5
		c36.9-8.8,63-41.4,63-79.8s-26.1-71-63-79.8V595.1c36.9-8.8,63-41.4,63-79.8s-26.1-71-63-79.8v-81.8c36.9-8.8,63-41.4,63-79.8
		c0-38.4-26.1-71-63-79.8V87.8z"/>
	<path class="st0" d="M536.5,274c0-33.2,23.9-61.1,56.8-66.4l6.2-1V73H312.6v133.6l6.2,1c32.9,5.3,56.8,33.2,56.8,66.4
		c0,33.2-23.9,61.1-56.8,66.4l-6.2,1v106.5l6.2,1c32.9,5.3,56.8,33.3,56.8,66.4c0,33.2-23.9,61.1-56.8,66.4l-6.2,1v232.6l6.2,1
		c32.9,5.3,56.8,33.2,56.8,66.4c0,33.1-23.9,61.1-56.8,66.4l-6.2,1V1127h286.9V950.2l-6.2-1c-32.9-5.3-56.8-33.3-56.8-66.4
		c0-33.2,23.9-61.1,56.8-66.4l6.2-1V582.8l-6.2-1c-32.9-5.3-56.8-33.3-56.8-66.4c0-33.2,23.9-61.1,56.8-66.4l6.2-1V341.4l-6.2-1
		C560.4,335.1,536.5,307.2,536.5,274z M584.7,435.6c-36.9,8.8-63,41.4-63,79.8c0,38.3,26.1,71,63,79.8v207.8
		c-36.9,8.8-63,41.4-63,79.8c0,38.3,26.1,70.9,63,79.8v149.7H327.5V962.5c36.9-8.8,63-41.4,63-79.8c0-38.4-26.1-71-63-79.8V595.1
		c36.9-8.8,63-41.4,63-79.8s-26.1-71-63-79.8v-81.8c36.9-8.8,63-41.4,63-79.8c0-38.3-26.1-71-63-79.8V87.8h257.2l0,106.4
		c-36.9,8.8-63,41.4-63,79.8c0,38.4,26.1,71,63,79.8V435.6z"/>
	<path class="st0" d="M27.7,1127h275.9V950.2l-6.2-1c-32.9-5.3-56.8-33.3-56.8-66.4c0-33.2,23.9-61.1,56.8-66.4l6.2-1V582.8l-6.2-1
		c-32.9-5.3-56.8-33.3-56.8-66.4c0-33.2,23.9-61.1,56.8-66.4l6.2-1V341.4l-6.2-1c-32.9-5.3-56.8-33.2-56.8-66.4s23.9-61.1,56.8-66.4
		l6.2-1V73.1H27.7V1127z M42.6,87.9h246.3v106.4c-36.9,8.8-63,41.4-63,79.8c0,38.4,26.1,71,63,79.8v81.8c-36.9,8.8-63,41.4-63,79.8
		c0,38.4,26.1,71,63,79.8v207.8c-36.9,8.8-63,41.4-63,79.8c0,38.3,26.1,70.9,63,79.8v149.7H42.6V87.9z"/>
</g>
</svg>
