<svg width="16" height="16" viewBox="0 0 16 16" fill="none" xmlns="http://www.w3.org/2000/svg">
<path d="M14.1176 2.58065H11.2941V2.06452C11.2941 0.926452 10.4494 0 9.41177 0H6.58824C5.55059 0 4.70588 0.926452 4.70588 2.06452V2.58065H1.88235C0.844706 2.58065 0 3.5071 0 4.64516V7.09677C0 7.32387 0.134118 7.52258 0.329412 7.58968L0.470588 7.63871V13.9355C0.470588 15.0735 1.31529 16 2.35294 16H13.6471C14.6847 16 15.5294 15.0735 15.5294 13.9355V7.63871L15.6706 7.58968C15.8659 7.52258 16 7.32387 16 7.09677V4.64516C16 3.5071 15.1553 2.58065 14.1176 2.58065ZM5.64706 2.06452C5.64706 1.49419 6.06824 1.03226 6.58824 1.03226H9.41177C9.93176 1.03226 10.3529 1.49419 10.3529 2.06452V2.58065H5.64706V2.06452ZM14.5882 13.9355C14.5882 14.5058 14.1671 14.9677 13.6471 14.9677H2.35294C1.83294 14.9677 1.41176 14.5058 1.41176 13.9355V7.96129L6.58824 9.73677V10.3226C6.58824 10.7484 6.90588 11.0968 7.29412 11.0968H8.70588C9.09412 11.0968 9.41177 10.7484 9.41177 10.3226V9.73419L14.5882 7.95871V13.9355ZM7.52941 10.0645V9.03226H8.47059V10.0645H7.52941ZM15.0588 6.71742L9.4 8.65548C9.34824 8.28645 9.05882 8 8.70588 8H7.29412C6.94118 8 6.65176 8.28645 6.6 8.65548L0.941176 6.71742V4.64516C0.941176 4.07484 1.36235 3.6129 1.88235 3.6129H14.1176C14.6376 3.6129 15.0588 4.07484 15.0588 4.64516V6.71742Z" fill="#3F71EB"/>
</svg>
