<svg width="18" height="18" viewBox="0 0 18 18" fill="none" xmlns="http://www.w3.org/2000/svg">
<path d="M4.01999 4.90375C3.49583 5.21281 2.87695 5.32009 2.27934 5.20548C1.68174 5.09087 1.14646 4.76224 0.773823 4.28119C0.40119 3.80015 0.216794 3.19971 0.255201 2.59243C0.293608 1.98515 0.552181 1.41273 0.98245 0.982457C1.41272 0.552189 1.98514 0.293616 2.59242 0.255209C3.1997 0.216802 3.80014 0.401198 4.28119 0.773831C4.76223 1.14646 5.09086 1.68175 5.20547 2.27935C5.32008 2.87695 5.2128 3.49584 4.90374 4.02L7.72999 6.845C8.11492 6.61864 8.55344 6.49951 8.99999 6.5C9.46249 6.5 9.89749 6.62625 10.27 6.84625L13.095 4.02C12.7859 3.49584 12.6787 2.87695 12.7933 2.27935C12.9079 1.68175 13.2365 1.14646 13.7175 0.773831C14.1986 0.401198 14.799 0.216802 15.4063 0.255209C16.0136 0.293616 16.586 0.552189 17.0163 0.982457C17.4466 1.41273 17.7051 1.98515 17.7435 2.59243C17.7819 3.19971 17.5975 3.80015 17.2249 4.28119C16.8523 4.76224 16.317 5.09087 15.7194 5.20548C15.1218 5.32009 14.5029 5.21281 13.9787 4.90375L11.1537 7.73C11.3819 8.11432 11.5024 8.55303 11.5024 9C11.5024 9.44697 11.3819 9.88568 11.1537 10.27L13.98 13.095C14.5042 12.7859 15.123 12.6787 15.7206 12.7933C16.3182 12.9079 16.8535 13.2365 17.2262 13.7176C17.5988 14.1986 17.7832 14.799 17.7448 15.4063C17.7064 16.0136 17.4478 16.586 17.0175 17.0163C16.5873 17.4466 16.0148 17.7051 15.4076 17.7435C14.8003 17.7819 14.1998 17.5976 13.7188 17.2249C13.2378 16.8523 12.9091 16.317 12.7945 15.7194C12.6799 15.1218 12.7872 14.5029 13.0962 13.9788L10.27 11.1538C9.88519 11.3805 9.44666 11.5001 8.99999 11.5C8.55333 11.5001 8.11479 11.3805 7.72999 11.1538L4.90499 13.98C5.21405 14.5042 5.32133 15.123 5.20672 15.7206C5.09211 16.3183 4.76348 16.8535 4.28244 17.2262C3.80139 17.5988 3.20095 17.7832 2.59367 17.7448C1.98639 17.7064 1.41397 17.4478 0.9837 17.0175C0.553431 16.5873 0.294859 16.0149 0.256452 15.4076C0.218045 14.8003 0.40244 14.1999 0.775073 13.7188C1.14771 13.2378 1.68299 12.9091 2.28059 12.7945C2.8782 12.6799 3.49708 12.7872 4.02124 13.0963L6.84624 10.27C6.61945 9.8852 6.49988 9.44666 6.49999 9C6.49999 8.5375 6.62624 8.1025 6.84624 7.73L4.01999 4.90375Z" fill="#555555"/>
</svg>
