<svg width="18" height="16" viewBox="0 0 18 16" fill="none" xmlns="http://www.w3.org/2000/svg">
<path d="M9.00004 0.125C9.49926 0.125 9.95981 0.388672 10.2129 0.821094L17.8067 13.7586C18.0633 14.1945 18.0633 14.7324 17.8137 15.1684C17.5641 15.6043 17.0965 15.875 16.5938 15.875H1.4063C0.903561 15.875 0.435983 15.6043 0.186373 15.1684C-0.0632361 14.7324 -0.0597205 14.191 0.193405 13.7586L7.78715 0.821094C8.04028 0.388672 8.50083 0.125 9.00004 0.125ZM9.00004 4.625C8.53247 4.625 8.15629 5.00117 8.15629 5.46875V9.40625C8.15629 9.87383 8.53247 10.25 9.00004 10.25C9.46762 10.25 9.8438 9.87383 9.8438 9.40625V5.46875C9.8438 5.00117 9.46762 4.625 9.00004 4.625ZM10.125 12.5C10.125 11.8777 9.62231 11.375 9.00004 11.375C8.37778 11.375 7.87505 11.8777 7.87505 12.5C7.87505 13.1223 8.37778 13.625 9.00004 13.625C9.62231 13.625 10.125 13.1223 10.125 12.5Z" fill="#E22C57"/>
</svg>
