<svg width="19" height="16" viewBox="0 0 19 16" fill="none" xmlns="http://www.w3.org/2000/svg">
<path d="M17.1413 6.85796H3.58825L7.73645 1.87555C7.93042 1.64218 8.02374 1.34131 7.99588 1.03914C7.96802 0.736965 7.82126 0.458234 7.58789 0.264265C7.35452 0.0702951 7.05366 -0.0230245 6.75148 0.00483557C6.44931 0.0326956 6.17058 0.179453 5.97661 0.412823L0.262834 7.26935C0.224392 7.32389 0.190016 7.38118 0.159985 7.44076C0.159985 7.4979 0.159986 7.53219 0.079993 7.58932C0.0281959 7.72035 0.00107547 7.85983 0 8.00072C0.00107547 8.1416 0.0281959 8.28108 0.079993 8.41211C0.079993 8.46924 0.0799927 8.50353 0.159985 8.56066C0.190016 8.62025 0.224392 8.67754 0.262834 8.73208L5.97661 15.5886C6.08405 15.7176 6.2186 15.8213 6.37068 15.8924C6.52276 15.9636 6.68864 16.0003 6.85653 16C7.12354 16.0005 7.3823 15.9075 7.58789 15.7372C7.70361 15.6412 7.79926 15.5234 7.86937 15.3905C7.93948 15.2575 7.98267 15.112 7.99647 14.9623C8.01027 14.8127 7.9944 14.6617 7.94979 14.5182C7.90517 14.3747 7.83267 14.2414 7.73645 14.1259L3.58825 9.14347H17.1413C17.4444 9.14347 17.7351 9.02307 17.9494 8.80876C18.1637 8.59446 18.2841 8.30379 18.2841 8.00072C18.2841 7.69764 18.1637 7.40697 17.9494 7.19267C17.7351 6.97836 17.4444 6.85796 17.1413 6.85796Z" fill="#3F71EB"/>
</svg>
