<svg width="20" height="18" viewBox="0 0 20 18" fill="none" xmlns="http://www.w3.org/2000/svg">
<path d="M13.75 2.75H16.25C16.9414 2.75 17.5 3.30859 17.5 4V14C17.5 14.6914 16.9414 15.25 16.25 15.25H13.75C13.0586 15.25 12.5 15.8086 12.5 16.5C12.5 17.1914 13.0586 17.75 13.75 17.75H16.25C18.3203 17.75 20 16.0703 20 14V4C20 1.92969 18.3203 0.25 16.25 0.25H13.75C13.0586 0.25 12.5 0.808594 12.5 1.5C12.5 2.19141 13.0586 2.75 13.75 2.75ZM13.3828 9.88281C13.8711 9.39453 13.8711 8.60156 13.3828 8.11328L8.38281 3.11328C7.89453 2.625 7.10156 2.625 6.61328 3.11328C6.125 3.60156 6.125 4.39453 6.61328 4.88281L9.48047 7.75H1.25C0.558594 7.75 0 8.30859 0 9C0 9.69141 0.558594 10.25 1.25 10.25H9.48047L6.61328 13.1172C6.125 13.6055 6.125 14.3984 6.61328 14.8867C7.10156 15.375 7.89453 15.375 8.38281 14.8867L13.3828 9.88672V9.88281Z" fill="#949494"/>
</svg>
