<svg width="20" height="18" viewBox="0 0 20 18" fill="none" xmlns="http://www.w3.org/2000/svg">
<path d="M6.25 15.25H3.75C3.05977 15.25 2.5 14.6902 2.5 14V4C2.5 3.30977 3.05977 2.75 3.75 2.75H6.25C6.94024 2.75 7.5 2.19023 7.5 1.5C7.5 0.809766 6.94141 0.25 6.25 0.25H3.75C1.67891 0.25 0 1.92891 0 4V14C0 16.0711 1.67891 17.75 3.75 17.75H6.25C6.94024 17.75 7.5 17.1902 7.5 16.5C7.5 15.8098 6.94141 15.25 6.25 15.25ZM19.6328 8.11719L14.6328 3.11719C14.1441 2.62852 13.3531 2.6293 12.8652 3.11719C12.377 3.60547 12.377 4.39648 12.8652 4.88477L15.7344 7.75H7.5C6.80859 7.75 6.25 8.30859 6.25 9C6.25 9.69141 6.80899 10.25 7.5 10.25H15.7344L12.868 13.1164C12.3797 13.6047 12.3797 14.3957 12.868 14.884C13.3563 15.3723 14.1473 15.3723 14.6355 14.884L19.6355 9.88398C20.1211 9.39453 20.1211 8.60547 19.6328 8.11719Z" fill="#E22C57"/>
</svg>
