<svg width="10" height="10" viewBox="0 0 10 10" fill="none" xmlns="http://www.w3.org/2000/svg">
<path d="M5.06011 0C2.34031 0 0.128418 2.24252 0.128418 5C0.128418 7.75748 2.34031 10 5.06011 10C7.77992 10 9.99181 7.75748 9.99181 5C9.99181 2.24252 7.77992 0 5.06011 0ZM5.06011 0.697674C7.40717 0.697674 9.30366 2.62043 9.30366 5C9.30366 7.37957 7.40717 9.30233 5.06011 9.30233C2.71305 9.30233 0.816561 7.37957 0.816561 5C0.816561 2.62043 2.71305 0.697674 5.06011 0.697674ZM5.06011 1.74419C4.09958 1.74419 3.31518 2.37749 3.12061 3.1686C3.09399 3.25997 3.10628 3.35756 3.15133 3.44061C3.19844 3.52367 3.27626 3.58181 3.36638 3.60673C3.45649 3.62957 3.55275 3.61503 3.63262 3.5652C3.7125 3.51537 3.7678 3.43439 3.78623 3.34095C3.89068 2.91736 4.41088 2.44394 5.05806 2.44394C5.37756 2.44394 5.71139 2.56229 5.94692 2.75748C6.18244 2.95058 6.31966 3.20183 6.31966 3.49252C6.31966 3.87458 6.24388 4.04485 6.13943 4.17982C6.03498 4.31478 5.87319 4.41653 5.66019 4.57226C5.44719 4.72799 5.19119 4.94186 5.00686 5.28862C4.82254 5.63538 4.71399 6.1005 4.71399 6.74834C4.71399 6.87292 4.77953 6.9892 4.88603 7.0515C4.99253 7.11379 5.1236 7.11379 5.2301 7.0515C5.3366 6.9892 5.40214 6.875 5.40214 6.74834C5.40214 6.17733 5.49635 5.83887 5.61308 5.61877C5.72982 5.39867 5.87319 5.27824 6.06161 5.14327C6.25003 5.00831 6.4876 4.86711 6.68421 4.60963C6.88287 4.35008 7.0078 3.98463 7.0078 3.4946C7.0078 2.97135 6.74361 2.51869 6.37701 2.21968C6.01245 1.91238 5.54345 1.74419 5.06011 1.74419ZM5.06421 7.32558C4.81025 7.32558 4.60135 7.53322 4.60135 7.7907C4.60135 8.04817 4.81025 8.25581 5.06421 8.25581C5.31817 8.25581 5.52297 8.04817 5.52297 7.7907C5.52297 7.53322 5.31612 7.32558 5.06421 7.32558Z" fill="#949494"/>
</svg>
