<svg width="16" height="16" viewBox="0 0 16 16" fill="none" xmlns="http://www.w3.org/2000/svg">
<g clip-path="url(#clip0_7957_2452)">
<path fill-rule="evenodd" clip-rule="evenodd" d="M7.11021 14.0818C7.11021 14.4963 6.94363 14.8946 6.65109 15.1872C6.35856 15.4798 5.96039 15.6464 5.54596 15.6464H1.56425C1.14982 15.6464 0.751651 15.4798 0.459116 15.1872C0.166582 14.8946 0 14.4963 0 14.0818V10.0991C0 9.68452 0.166582 9.28625 0.459116 8.99364C0.751651 8.70103 1.14982 8.53441 1.56425 8.53441H5.54596C5.96039 8.53441 6.35856 8.70103 6.65109 8.99364C6.94363 9.28625 7.11021 9.68452 7.11021 10.0991V14.0818ZM5.68817 14.0818V10.0991C5.68817 10.0625 5.67192 10.0259 5.64754 9.99745C5.6191 9.969 5.58253 9.95681 5.54596 9.95681H1.56425C1.52768 9.95681 1.49111 9.97307 1.46267 9.99745C1.43423 10.0218 1.42204 10.0584 1.42204 10.0991V14.0818C1.42204 14.1184 1.43829 14.1549 1.46267 14.1834C1.49111 14.2118 1.52362 14.224 1.56425 14.224H5.54596C5.58253 14.224 5.6191 14.2078 5.64754 14.1834C5.67192 14.1549 5.68817 14.1184 5.68817 14.0818Z" fill="#949494"/>
<path fill-rule="evenodd" clip-rule="evenodd" d="M7.11021 5.54736C7.11021 5.96188 6.94363 6.36016 6.65109 6.65277C6.35856 6.94538 5.96039 7.112 5.54596 7.112H1.56425C1.14982 7.112 0.751651 6.94538 0.459116 6.65277C0.166582 6.36016 0 5.96188 0 5.54736C0 4.47446 0 2.63753 0 1.56463C0 1.1501 0.166582 0.751827 0.459116 0.459218C0.751651 0.16661 1.14982 -1.52588e-05 1.56425 -1.52588e-05H5.54596C5.96039 -1.52588e-05 6.35856 0.16661 6.65109 0.459218C6.94363 0.751827 7.11021 1.1501 7.11021 1.56463V5.54736ZM5.68817 5.54736V1.56463C5.68817 1.52805 5.67192 1.49148 5.64754 1.46303C5.6191 1.43458 5.58253 1.42239 5.54596 1.42239H1.56425C1.52768 1.42239 1.49111 1.43864 1.46267 1.46303C1.43423 1.48741 1.42204 1.52399 1.42204 1.56463V5.54736C1.42204 5.58393 1.43829 5.62051 1.46267 5.64896C1.49111 5.6774 1.52362 5.6896 1.56425 5.6896H5.54596C5.58253 5.6896 5.6191 5.67334 5.64754 5.64896C5.67192 5.62051 5.68817 5.58393 5.68817 5.54736Z" fill="#949494"/>
<path fill-rule="evenodd" clip-rule="evenodd" d="M15.6424 5.54736C15.6424 5.96188 15.4759 6.36016 15.1833 6.65277C14.8908 6.94538 14.4926 7.112 14.0782 7.112H10.0965C9.68205 7.112 9.28388 6.94538 8.99134 6.65277C8.69881 6.36016 8.53223 5.96188 8.53223 5.54736V1.56463C8.53223 1.1501 8.69881 0.751827 8.99134 0.459218C9.28388 0.16661 9.68205 -1.52588e-05 10.0965 -1.52588e-05H14.0782C14.4926 -1.52588e-05 14.8908 0.16661 15.1833 0.459218C15.4759 0.751827 15.6424 1.1501 15.6424 1.56463V5.54736ZM14.2204 5.54736V1.56463C14.2204 1.52805 14.2041 1.49148 14.1798 1.46303C14.1513 1.43458 14.1148 1.42239 14.0782 1.42239H10.0965C10.0599 1.42239 10.0233 1.43864 9.9949 1.46303C9.96646 1.48741 9.95427 1.52399 9.95427 1.56463V5.54736C9.95427 5.58393 9.97052 5.62051 9.9949 5.64896C10.0233 5.6774 10.0558 5.6896 10.0965 5.6896H14.0782C14.1148 5.6896 14.1513 5.67334 14.1798 5.64896C14.2041 5.62051 14.2204 5.58393 14.2204 5.54736Z" fill="#949494"/>
<path fill-rule="evenodd" clip-rule="evenodd" d="M12.0874 16C9.92991 16 8.17877 14.2484 8.17877 12.0904C8.17877 9.93244 9.92991 8.18085 12.0874 8.18085C14.2448 8.18085 15.9959 9.93244 15.9959 12.0904C15.9959 14.2484 14.2448 16 12.0874 16ZM12.0874 14.5776C13.4606 14.5776 14.578 13.46 14.578 12.0864C14.578 10.7127 13.4606 9.59512 12.0874 9.59512C10.7141 9.59512 9.59675 10.7127 9.59675 12.0864C9.59675 13.46 10.7141 14.5776 12.0874 14.5776Z" fill="#949494"/>
</g>
<defs>
<clipPath id="clip0_7957_2452">
<rect width="16" height="16" fill="white" transform="matrix(1 0 0 -1 0 16)"/>
</clipPath>
</defs>
</svg>
