<svg width="33" height="30" viewBox="0 0 33 30" fill="none" xmlns="http://www.w3.org/2000/svg">
<path d="M20.6946 30C20.2092 30 19.7239 29.8661 19.2887 29.5816C18.1005 28.8117 17.749 27.205 18.5356 26L27.3556 12.4436C28.1255 11.2554 29.7322 10.9039 30.9372 11.6905C32.1255 12.4604 32.4769 14.0671 31.6903 15.2721L22.8703 28.8285C22.3682 29.5816 21.5481 30 20.6946 30Z" fill="#3399FF"/>
<path d="M5.9332 19.8411C5.41437 19.8411 4.89555 19.6905 4.44367 19.3725C3.27213 18.5524 3.00435 16.929 3.82443 15.7742L11.4896 4.61106C12.3097 3.43952 13.9331 3.17174 15.088 3.99181C16.2595 4.81189 16.5273 6.43531 15.7072 7.59012L8.04197 18.7532C7.53988 19.4561 6.75328 19.8411 5.9332 19.8411Z" fill="#E32C58"/>
<path d="M2.58592 9.53152C2.08383 9.53152 1.58175 9.38089 1.12987 9.07964C-0.0416747 8.27629 -0.342928 6.66961 0.460414 5.48133L3.33906 1.1299C4.1424 -0.0416442 5.74908 -0.342897 6.93736 0.460445C8.1089 1.26379 8.41015 2.87047 7.60681 4.05875L4.72817 8.41018C4.22608 9.14658 3.406 9.53152 2.58592 9.53152Z" fill="#F2B668"/>
<path d="M16.2427 20.7448C15.7574 20.7448 15.272 20.6109 14.8369 20.3264C13.6486 19.5398 13.2972 17.9499 14.0838 16.7449L23.9247 1.23032C24.7113 0.042039 26.3013 -0.309423 27.5063 0.477183C28.6946 1.26379 29.046 2.85374 28.2594 4.05875L18.4185 19.5733C17.9164 20.3432 17.0796 20.7448 16.2427 20.7448Z" fill="#01B792"/>
</svg>
