<svg width="60" height="60" viewBox="0 0 60 60" fill="none" xmlns="http://www.w3.org/2000/svg">
<rect x="1.5" y="1.5" width="57" height="57" rx="28.5" fill="white"/>
<g clip-path="url(#clip0_9350_4995)">
<path d="M31.875 16.875C31.875 15.8379 31.0371 15 30 15C28.9629 15 28.125 15.8379 28.125 16.875V31.0957L23.8242 26.7949C23.0918 26.0625 21.9023 26.0625 21.1699 26.7949C20.4375 27.5273 20.4375 28.7168 21.1699 29.4492L28.6699 36.9492C29.4023 37.6816 30.5918 37.6816 31.3242 36.9492L38.8242 29.4492C39.5566 28.7168 39.5566 27.5273 38.8242 26.7949C38.0918 26.0625 36.9023 26.0625 36.1699 26.7949L31.875 31.0957V16.875ZM18.75 35.625C16.6816 35.625 15 37.3066 15 39.375V41.25C15 43.3184 16.6816 45 18.75 45H41.25C43.3184 45 45 43.3184 45 41.25V39.375C45 37.3066 43.3184 35.625 41.25 35.625H35.3027L32.6484 38.2793C31.1836 39.7441 28.8105 39.7441 27.3457 38.2793L24.6973 35.625H18.75ZM40.3125 41.7188C39.5332 41.7188 38.9062 41.0918 38.9062 40.3125C38.9062 39.5332 39.5332 38.9062 40.3125 38.9062C41.0918 38.9062 41.7188 39.5332 41.7188 40.3125C41.7188 41.0918 41.0918 41.7188 40.3125 41.7188Z" fill="#949494"/>
</g>
<rect x="1.5" y="1.5" width="57" height="57" rx="28.5" stroke="#949494" stroke-width="3"/>
<defs>
<clipPath id="clip0_9350_4995">
<rect width="30" height="30" fill="white" transform="translate(15 15)"/>
</clipPath>
</defs>
</svg>
