<svg width="63" height="63" viewBox="0 0 63 63" fill="none" xmlns="http://www.w3.org/2000/svg">
<rect x="1.5" y="4.5" width="57" height="57" rx="28.5" fill="white"/>
<g clip-path="url(#clip0_9370_4534)">
<path d="M31.875 19.875C31.875 18.8379 31.0371 18 30 18C28.9629 18 28.125 18.8379 28.125 19.875V34.0957L23.8242 29.7949C23.0918 29.0625 21.9023 29.0625 21.1699 29.7949C20.4375 30.5273 20.4375 31.7168 21.1699 32.4492L28.6699 39.9492C29.4023 40.6816 30.5918 40.6816 31.3242 39.9492L38.8242 32.4492C39.5566 31.7168 39.5566 30.5273 38.8242 29.7949C38.0918 29.0625 36.9023 29.0625 36.1699 29.7949L31.875 34.0957V19.875ZM18.75 38.625C16.6816 38.625 15 40.3066 15 42.375V44.25C15 46.3184 16.6816 48 18.75 48H41.25C43.3184 48 45 46.3184 45 44.25V42.375C45 40.3066 43.3184 38.625 41.25 38.625H35.3027L32.6484 41.2793C31.1836 42.7441 28.8105 42.7441 27.3457 41.2793L24.6973 38.625H18.75ZM40.3125 44.7188C39.5332 44.7188 38.9062 44.0918 38.9062 43.3125C38.9062 42.5332 39.5332 41.9062 40.3125 41.9062C41.0918 41.9062 41.7188 42.5332 41.7188 43.3125C41.7188 44.0918 41.0918 44.7188 40.3125 44.7188Z" fill="#949494"/>
</g>
<rect x="38.5" y="1.5" width="23" height="23" rx="11.5" fill="#FFA800"/>
<path d="M50.625 7.75C50.625 7.26602 50.234 6.875 49.75 6.875C49.266 6.875 48.875 7.26602 48.875 7.75V14.75C48.875 15.234 49.266 15.625 49.75 15.625C50.234 15.625 50.625 15.234 50.625 14.75V7.75ZM49.75 19.125C50.3543 19.125 50.8438 18.6355 50.8438 18.0312C50.8438 17.427 50.3543 16.9375 49.75 16.9375C49.1457 16.9375 48.6562 17.427 48.6562 18.0312C48.6562 18.6355 49.1457 19.125 49.75 19.125Z" fill="white"/>
<rect x="38.5" y="1.5" width="23" height="23" rx="11.5" stroke="white" stroke-width="3"/>
<rect x="1.5" y="4.5" width="57" height="57" rx="28.5" stroke="#949494" stroke-width="3"/>
<defs>
<clipPath id="clip0_9370_4534">
<rect width="30" height="30" fill="white" transform="translate(15 18)"/>
</clipPath>
</defs>
</svg>
