<svg width="30" height="24" viewBox="0 0 30 24" fill="none" xmlns="http://www.w3.org/2000/svg">
<path d="M2.54034 9.51094C5.77471 6.40781 10.1622 4.5 14.9997 4.5C19.8372 4.5 24.2247 6.40781 27.4591 9.51094C28.0591 10.0828 29.006 10.0641 29.5778 9.46875C30.1497 8.87344 30.131 7.92188 29.5356 7.35C25.7669 3.72656 20.6435 1.5 14.9997 1.5C9.35596 1.5 4.23252 3.72656 0.459087 7.34531C-0.136225 7.92188 -0.154975 8.86875 0.4169 9.46875C0.988775 10.0688 1.94034 10.0875 2.53565 9.51094H2.54034ZM14.9997 12C17.6622 12 20.0903 12.9891 21.9466 14.625C22.57 15.1734 23.5169 15.1125 24.0653 14.4938C24.6138 13.875 24.5528 12.9234 23.9341 12.375C21.5528 10.275 18.4216 9 14.9997 9C11.5778 9 8.44659 10.275 6.07002 12.375C5.44659 12.9234 5.39034 13.8703 5.93878 14.4938C6.48721 15.1172 7.43409 15.1734 8.05752 14.625C9.90909 12.9891 12.3372 12 15.0044 12H14.9997ZM17.9997 19.5C17.9997 18.7044 17.6836 17.9413 17.121 17.3787C16.5584 16.8161 15.7954 16.5 14.9997 16.5C14.2041 16.5 13.441 16.8161 12.8784 17.3787C12.3158 17.9413 11.9997 18.7044 11.9997 19.5C11.9997 20.2957 12.3158 21.0587 12.8784 21.6213C13.441 22.1839 14.2041 22.5 14.9997 22.5C15.7954 22.5 16.5584 22.1839 17.121 21.6213C17.6836 21.0587 17.9997 20.2957 17.9997 19.5Z" fill="white"/>
</svg>
