<svg width="18" height="20" viewBox="0 0 18 20" fill="none" xmlns="http://www.w3.org/2000/svg">
<path d="M10.0002 1.25V2C12.8518 2.5793 15.0002 5.10156 15.0002 8.125V8.85938C15.0002 10.6992 15.676 12.4688 16.8948 13.8438L17.1838 14.168C17.512 14.5391 17.594 15.0625 17.3909 15.5117C17.1877 15.9609 16.7424 16.25 16.2502 16.25H1.25023C0.758047 16.25 0.311602 15.9609 0.109961 15.5117C-0.0916793 15.0625 -0.0110269 14.5391 0.316016 14.168L0.605704 13.8438C1.82602 12.4688 2.50024 10.6992 2.50024 8.85938V8.125C2.50024 5.10156 4.61352 2.5793 7.50024 2V1.25C7.50024 0.559766 8.05883 0 8.75024 0C9.44164 0 10.0002 0.559766 10.0002 1.25ZM8.75024 20C8.08617 20 7.44945 19.7383 6.9807 19.2695C6.51195 18.8008 6.25024 18.1289 6.25024 17.5H11.2502C11.2502 18.1289 10.9885 18.8008 10.5198 19.2695C10.051 19.7383 9.37914 20 8.75024 20Z" fill="#949494"/>
</svg>
