<?xml version="1.0" encoding="utf-8"?>
<!-- Generator: Adobe Illustrator 22.1.0, SVG Export Plug-In . SVG Version: 6.00 Build 0)  -->
<svg version="1.1" id="Layer_1" xmlns="http://www.w3.org/2000/svg" xmlns:xlink="http://www.w3.org/1999/xlink" x="0px" y="0px"
	 viewBox="0 0 846.1 1104.1" style="enable-background:new 0 0 846.1 1104.1;" xml:space="preserve">
<style type="text/css">
	.st0{fill:#37CDB1;}
</style>
<g>
	<g>
		<path class="st0" d="M815.8,195.5L649.1,28.7c-3.4-3.4-7.9-5.3-12.7-5.3H37.2c-9.8,0-17.9,8.1-17.9,17.9v1024
			c0,9.8,8.1,17.9,17.9,17.9h765.8c9.8,0,17.9-8.1,17.9-17.9v-857C821.1,203.6,819.2,198.9,815.8,195.5z M785.2,1047.4H55.1V59.1
			h573.7l156.4,156.5V1047.4z"/>
	</g>
</g>
<g>
	<g>
		<path class="st0" d="M815.9,195.5l-167-166.9c-5.2-5.2-12.9-6.6-19.5-3.9c-6.8,2.7-11.1,9.3-11.1,16.6v166.9
			c0,9.8,8.1,17.9,17.9,17.9h166.9c7.2,0,13.9-4.3,16.6-11.1C822.5,208.4,820.9,200.7,815.9,195.5z M654.2,190.4V84.6l105.7,105.7
			H654.2V190.4z"/>
	</g>
</g>
<g>
	<g>
		<path class="st0" d="M268.2,113.4H119.9c-9.8,0-17.9,8.1-17.9,17.9s8.1,17.9,17.9,17.9h148.3c9.8,0,17.9-8.1,17.9-17.9
			S278.2,113.4,268.2,113.4z"/>
	</g>
</g>
<g>
	<g>
		<path class="st0" d="M365.5,220.5H120c-9.8,0-17.9,8.1-17.9,17.9s8.1,17.9,17.9,17.9h245.4c9.8,0,17.9-8.1,17.9-17.9
			S375.5,220.5,365.5,220.5z"/>
	</g>
</g>
<g>
	<g>
		<path class="st0" d="M543.8,338.5H298.1c-9.8,0-17.9,8.1-17.9,17.9s8.1,17.9,17.9,17.9h245.6c9.8,0,17.9-8.1,17.9-17.9
			S553.6,338.5,543.8,338.5z"/>
	</g>
</g>
<g>
	<g>
		<path class="st0" d="M720.4,869.7H474.8c-9.8,0-17.9,8.1-17.9,17.9s8.1,17.9,17.9,17.9h245.6c9.8,0,17.9-8.1,17.9-17.9
			S730.4,869.7,720.4,869.7z"/>
	</g>
</g>
<g>
	<g>
		<path class="st0" d="M720.4,957.2H597.7c-9.8,0-17.9,8.1-17.9,17.9s8.1,17.9,17.9,17.9h122.7c9.8,0,17.9-8.1,17.9-17.9
			S730.4,957.2,720.4,957.2z"/>
	</g>
</g>
<g>
	<g>
		<path class="st0" d="M720.4,436H121.3c-9.8,0-17.9,8.1-17.9,17.9s8.1,17.9,17.9,17.9h599.1c9.8,0,17.9-8.1,17.9-17.9
			S730.4,436,720.4,436z"/>
	</g>
</g>
<g>
	<g>
		<path class="st0" d="M720.4,522.8H121.3c-9.8,0-17.9,8.1-17.9,17.9s8.1,17.9,17.9,17.9h599.1c9.8,0,17.9-8.1,17.9-17.9
			S730.4,522.8,720.4,522.8z"/>
	</g>
</g>
<g>
	<g>
		<path class="st0" d="M420.9,609.6H121.3c-9.8,0-17.9,8.1-17.9,17.9s8.1,17.9,17.9,17.9h299.6c9.8,0,17.9-8.1,17.9-17.9
			S430.9,609.6,420.9,609.6z"/>
	</g>
</g>
<g>
	<g>
		<path class="st0" d="M720.4,696.6H121.3c-9.8,0-17.9,8.1-17.9,17.9s8.1,17.9,17.9,17.9h599.1c9.8,0,17.9-8.1,17.9-17.9
			S730.4,696.6,720.4,696.6z"/>
	</g>
</g>
<g>
	<g>
		<path class="st0" d="M420.9,783.4H121.3c-9.8,0-17.9,8.1-17.9,17.9s8.1,17.9,17.9,17.9h299.6c9.8,0,17.9-8.1,17.9-17.9
			S430.9,783.4,420.9,783.4z"/>
	</g>
</g>
</svg>
