<svg width="16" height="16" viewBox="0 0 16 16" fill="none" xmlns="http://www.w3.org/2000/svg">
<path d="M15.8944 4.29524L10.3292 0.0809524C10.2609 0.0285714 10.1925 0 10.087 0H0.347826C0.173913 0 0 0.104762 0 0.266667V15.7333C0 15.8667 0.136646 16 0.347826 16H15.6522C15.8261 16 16 15.8952 16 15.7333V4.48095C16 4.4 15.9627 4.34762 15.8944 4.29524ZM15.3416 15.4952H0.658385V0.504762H9.77019V4.47619C9.77019 4.60952 9.90683 4.74286 10.118 4.74286H15.3354L15.3416 15.4952ZM2.50311 6.26667H13.528V6.82857H2.50311V6.26667ZM2.50311 8.21429H13.528V8.77619H2.50311V8.21429ZM2.50311 10.1333H13.528V10.6952H2.50311V10.1333ZM2.50311 12.0524H13.528V12.6143H2.50311V12.0524Z" fill="#949494"/>
</svg>
