<?xml version="1.0" encoding="utf-8"?>
<!-- Generator: Adobe Illustrator 22.1.0, SVG Export Plug-In . SVG Version: 6.00 Build 0)  -->
<svg version="1.1" id="Layer_1" xmlns="http://www.w3.org/2000/svg" xmlns:xlink="http://www.w3.org/1999/xlink" x="0px" y="0px"
	 viewBox="0 0 540 724" style="enable-background:new 0 0 540 724;" xml:space="preserve">
<style type="text/css">
	.st0{fill:#FFFFFF;}
</style>
<g>
	<g>
		<path class="st0" d="M512.6,141.9L409.1,38.3c-2.1-2.1-4.9-3.3-7.9-3.3h-372c-6.1,0-11.1,5-11.1,11.1v635.8
			c0,6.1,5,11.1,11.1,11.1h475.5c6.1,0,11.1-5,11.1-11.1V149.8C515.9,146.9,514.7,144,512.6,141.9z M493.6,670.8H40.3V57.2h356.2
			l97.1,97.2V670.8z"/>
	</g>
</g>
<g>
	<g>
		<path class="st0" d="M512.7,141.9L409,38.3c-3.2-3.2-8-4.1-12.1-2.4c-4.2,1.7-6.9,5.8-6.9,10.3v103.6c0,6.1,5,11.1,11.1,11.1
			h103.6c4.5,0,8.6-2.7,10.3-6.9C516.8,149.9,515.8,145.1,512.7,141.9z M412.3,138.7V73l65.6,65.6h-65.6V138.7z"/>
	</g>
</g>
<g>
	<g>
		<path class="st0" d="M172.6,90.9H80.5c-6.1,0-11.1,5-11.1,11.1s5,11.1,11.1,11.1h92.1c6.1,0,11.1-5,11.1-11.1
			S178.8,90.9,172.6,90.9z"/>
	</g>
</g>
<g>
	<g>
		<path class="st0" d="M233,157.4H80.6c-6.1,0-11.1,5-11.1,11.1s5,11.1,11.1,11.1H233c6.1,0,11.1-5,11.1-11.1S239.2,157.4,233,157.4
			z"/>
	</g>
</g>
<g>
	<g>
		<path class="st0" d="M343.7,230.7H191.2c-6.1,0-11.1,5-11.1,11.1s5,11.1,11.1,11.1h152.5c6.1,0,11.1-5,11.1-11.1
			S349.8,230.7,343.7,230.7z"/>
	</g>
</g>
<g>
	<g>
		<path class="st0" d="M453.4,560.5H300.9c-6.1,0-11.1,5-11.1,11.1s5,11.1,11.1,11.1h152.5c6.1,0,11.1-5,11.1-11.1
			S459.6,560.5,453.4,560.5z"/>
	</g>
</g>
<g>
	<g>
		<path class="st0" d="M453.4,614.8h-76.2c-6.1,0-11.1,5-11.1,11.1s5,11.1,11.1,11.1h76.2c6.1,0,11.1-5,11.1-11.1
			S459.6,614.8,453.4,614.8z"/>
	</g>
</g>
<g>
	<g>
		<path class="st0" d="M453.4,291.2h-372c-6.1,0-11.1,5-11.1,11.1s5,11.1,11.1,11.1h372c6.1,0,11.1-5,11.1-11.1
			S459.6,291.2,453.4,291.2z"/>
	</g>
</g>
<g>
	<g>
		<path class="st0" d="M453.4,345.1h-372c-6.1,0-11.1,5-11.1,11.1s5,11.1,11.1,11.1h372c6.1,0,11.1-5,11.1-11.1
			S459.6,345.1,453.4,345.1z"/>
	</g>
</g>
<g>
	<g>
		<path class="st0" d="M267.4,399h-186c-6.1,0-11.1,5-11.1,11.1s5,11.1,11.1,11.1h186c6.1,0,11.1-5,11.1-11.1S273.6,399,267.4,399z"
			/>
	</g>
</g>
<g>
	<g>
		<path class="st0" d="M453.4,453h-372c-6.1,0-11.1,5-11.1,11.1s5,11.1,11.1,11.1h372c6.1,0,11.1-5,11.1-11.1S459.6,453,453.4,453z"
			/>
	</g>
</g>
<g>
	<g>
		<path class="st0" d="M267.4,506.9h-186c-6.1,0-11.1,5-11.1,11.1s5,11.1,11.1,11.1h186c6.1,0,11.1-5,11.1-11.1
			S273.6,506.9,267.4,506.9z"/>
	</g>
</g>
</svg>
