<svg width="80" height="80" viewBox="0 0 80 80" fill="none" xmlns="http://www.w3.org/2000/svg">
<path d="M40 0C29.3905 0 19.219 4.20952 11.7143 11.7143C4.20952 19.219 0 29.3905 0 40C0 50.6095 4.20952 60.781 11.7143 68.2857C19.219 75.7905 29.3905 80 40 80C50.6095 80 60.781 75.7905 68.2857 68.2857C75.7905 60.781 80 50.6095 80 40C79.981 29.3905 75.7714 19.2381 68.2667 11.7333C60.7619 4.22857 50.6095 0.0190476 40 0ZM62.3429 29.0095L37.3524 54.0191C36.7238 54.6476 35.8857 55.0095 35.0095 55.0095C34.1333 55.0095 33.2762 54.6476 32.6667 54.0191L21.0095 42.3619C20.1714 41.5238 19.8476 40.3048 20.1524 39.1429C20.4571 38 21.3524 37.1048 22.4952 36.8C23.6381 36.4952 24.8571 36.819 25.7143 37.6571L35.0286 46.9524L57.6762 24.3238C58.5143 23.4857 59.7333 23.1619 60.8952 23.4667C62.0381 23.7714 62.9333 24.6667 63.2381 25.8095C63.5238 26.9524 63.181 28.1714 62.3429 29.0095Z" fill="#37CDB1"/>
</svg>
