<svg width="80" height="80" viewBox="0 0 80 80" fill="none" xmlns="http://www.w3.org/2000/svg">
<path d="M68.2587 11.6677C52.6893 -3.90162 27.2373 -3.90162 11.6863 11.6677C-3.88306 27.2371 -3.88306 52.6891 11.6863 68.2401C19.4158 76.08 29.7217 79.9815 39.9173 79.9815C50.1128 79.9815 60.4188 76.0616 68.2587 68.3321C83.8096 52.6891 83.8096 27.3291 68.2587 11.6677ZM52.6893 49.1925L49.0822 52.7995L39.9173 43.6162L30.7339 52.7995L27.1268 49.1925L36.2918 40.0275L27.1268 30.8626L30.7339 27.2371L39.8989 36.402L49.0638 27.2371L52.6709 30.8442L43.5059 40.0091L52.6893 49.1925Z" fill="#E22C57"/>
</svg>
