<?xml version="1.0" encoding="utf-8"?>
<!-- Generator: Adobe Illustrator 22.1.0, SVG Export Plug-In . SVG Version: 6.00 Build 0)  -->
<svg version="1.1" id="Layer_1" xmlns="http://www.w3.org/2000/svg" xmlns:xlink="http://www.w3.org/1999/xlink" x="0px" y="0px"
	 viewBox="0 0 894 1164" style="enable-background:new 0 0 894 1164;" xml:space="preserve">
<style type="text/css">
	.st0{fill:#797979;}
</style>
<g>
	<g>
		<path class="st0" d="M871.8,196.3L691.4,15.7c-3.6-3.6-8.6-5.7-13.7-5.7H29.9c-10.7,0-19.4,8.7-19.4,19.4v1107.3
			c0,10.7,8.7,19.4,19.4,19.4h828.2c10.7,0,19.4-8.7,19.4-19.4V210C877.5,204.8,875.4,199.9,871.8,196.3z M838.7,1117.3H49.2V48.7
			h620.4l169,169.2V1117.3z"/>
	</g>
</g>
<g>
	<g>
		<path class="st0" d="M871.8,196.2L691.4,15.7c-5.5-5.5-13.9-7.2-21.1-4.2c-7.2,3-12,10.1-12,17.9v180.5c0,10.7,8.7,19.4,19.4,19.4
			h180.5c7.8,0,14.9-4.7,17.9-12C879,210.1,877.4,201.7,871.8,196.2z M697,190.5V76.2l114.3,114.3H697z"/>
	</g>
</g>
<g>
	<g>
		<path class="st0" d="M279.6,107.4H119.3c-10.7,0-19.4,8.7-19.4,19.4s8.7,19.4,19.4,19.4h160.3c10.7,0,19.4-8.7,19.4-19.4
			S290.3,107.4,279.6,107.4z"/>
	</g>
</g>
<g>
	<g>
		<path class="st0" d="M384.8,223.1H119.3c-10.7,0-19.4,8.7-19.4,19.4c0,10.7,8.7,19.4,19.4,19.4h265.6c10.7,0,19.4-8.7,19.4-19.4
			C404.2,231.8,395.5,223.1,384.8,223.1z"/>
	</g>
</g>
<g>
	<g>
		<path class="st0" d="M577.5,350.9H312c-10.7,0-19.4,8.7-19.4,19.4s8.7,19.4,19.4,19.4h265.6c10.7,0,19.4-8.7,19.4-19.4
			S588.2,350.9,577.5,350.9z"/>
	</g>
</g>
<g>
	<g>
		<path class="st0" d="M768.7,925.2H503.1c-10.7,0-19.4,8.7-19.4,19.4s8.7,19.4,19.4,19.4h265.6c10.7,0,19.4-8.7,19.4-19.4
			S779.4,925.2,768.7,925.2z"/>
	</g>
</g>
<g>
	<g>
		<path class="st0" d="M768.7,1019.8H635.9c-10.7,0-19.4,8.7-19.4,19.4s8.7,19.4,19.4,19.4h132.8c10.7,0,19.4-8.7,19.4-19.4
			S779.4,1019.8,768.7,1019.8z"/>
	</g>
</g>
<g>
	<g>
		<path class="st0" d="M768.7,456.1H120.8c-10.7,0-19.4,8.7-19.4,19.4c0,10.7,8.7,19.4,19.4,19.4h647.9c10.7,0,19.4-8.7,19.4-19.4
			C788,464.8,779.4,456.1,768.7,456.1z"/>
	</g>
</g>
<g>
	<g>
		<path class="st0" d="M768.7,550.1H120.8c-10.7,0-19.4,8.7-19.4,19.4s8.7,19.4,19.4,19.4h647.9c10.7,0,19.4-8.7,19.4-19.4
			S779.4,550.1,768.7,550.1z"/>
	</g>
</g>
<g>
	<g>
		<path class="st0" d="M444.7,644H120.8c-10.7,0-19.4,8.7-19.4,19.4s8.7,19.4,19.4,19.4h323.9c10.7,0,19.4-8.7,19.4-19.4
			S455.4,644,444.7,644z"/>
	</g>
</g>
<g>
	<g>
		<path class="st0" d="M768.7,738H120.8c-10.7,0-19.4,8.7-19.4,19.4s8.7,19.4,19.4,19.4h647.9c10.7,0,19.4-8.7,19.4-19.4
			S779.4,738,768.7,738z"/>
	</g>
</g>
<g>
	<g>
		<path class="st0" d="M444.7,831.9H120.8c-10.7,0-19.4,8.7-19.4,19.4c0,10.7,8.7,19.4,19.4,19.4h323.9c10.7,0,19.4-8.7,19.4-19.4
			C464.1,840.6,455.4,831.9,444.7,831.9z"/>
	</g>
</g>
</svg>
