<?xml version="1.0" encoding="utf-8"?>
<!-- Generator: Adobe Illustrator 22.1.0, SVG Export Plug-In . SVG Version: 6.00 Build 0)  -->
<svg version="1.1" id="Layer_1" xmlns="http://www.w3.org/2000/svg" xmlns:xlink="http://www.w3.org/1999/xlink" x="0px" y="0px"
	 viewBox="0 0 1096 1038" style="enable-background:new 0 0 1096 1038;" xml:space="preserve">
<style type="text/css">
	.st0{fill:#FFFFFF;}
</style>
<g>
	<g>
		<path class="st0" d="M636.1,356.5H465.8c-8.5,0-15.5,7-15.5,15.5c0,8.5,7,15.5,15.5,15.5h170.4c8.5,0,15.5-7,15.5-15.5
			C651.8,363.5,644.8,356.5,636.1,356.5z"/>
	</g>
</g>
<g>
	<g>
		<path class="st0" d="M1065.2,776.1c-8.5,0-15.5,7-15.5,15.5V943c0,26.5-21.5,48-48,48H587.2c-8.5,0-15.5,7-15.5,15.5
			c0,8.5,7,15.5,15.5,15.5h414.5c43.5,0,79-35.5,79-79V791.6C1080.8,783.1,1073.7,776.1,1065.2,776.1z"/>
	</g>
</g>
<g>
	<g>
		<path class="st0" d="M1001.7,254.4H816.8v-45C816.8,105,732,20,627.5,20H474.3C370,20,285,104.8,285,209.4v45.2H100.2
			c-43.5,0-79,35.5-79,79V943c0,43.5,35.5,79,79,79h414.5c8.5,0,15.5-7,15.5-15.5s-7-15.5-15.5-15.5H100.2c-26.5,0-48-21.5-48-48
			V563.2c35,54.4,96.2,90.5,165.5,90.5h270.8V688c0,22.2,18,40.4,40.4,40.4h44.3c22.2,0,40.4-18,40.4-40.4v-34.3h270.8
			c69.3,0,130.5-36.1,165.5-90.7v156.3c0,8.5,7,15.5,15.5,15.5s15.5-7,15.5-15.5c0-13.9,0-371.9,0-385.7
			C1080.8,289.9,1045.3,254.4,1001.7,254.4z M474.3,51h153.3c87.2,0,158.2,71,158.2,158.2c0,38.3,0,43.5,0,68
			c0,7.6-6.1,13.7-13.7,13.7c-7.6,0-13.7-6.1-13.7-13.7c0-15.5,0-43.7,0-68c0-72.2-58.6-130.8-130.8-130.8H474.3
			c-72.2,0-130.8,58.6-130.8,130.8c0,74.3,0.3,69.3-0.6,72.2c-1.8,5.5-7,9.7-13.1,9.7c-7.6,0-13.7-6.1-13.7-13.7c0-25,0-43.2,0-68
			C316.1,122,387.1,51,474.3,51z M727.4,209.4v45.2H374.6v-45.2c0-55,44.7-99.8,99.8-99.8h153.3
			C682.6,109.6,727.4,154.3,727.4,209.4z M573.2,697.4h-44.3c-5.1,0-9.2-4.3-9.2-9.2c0-18,0-29.7,0-36.8c0-7.8,0-10.3,0-10.4
			c0-7.2,0-18.8,0-36.8c0-6.9,5.7-12.5,12.5-12.5h37.9c6.9,0,12.5,5.7,12.5,12.5c0,36.1,0,46.4,0,47.1c0-1.6,0-38.2,0,36.8
			C582.4,693.2,578.3,697.4,573.2,697.4z M884.2,622.7H613.5c0-8.2,0-13.4,0-21.8c0-22.2-18-40.4-40.4-40.4c-5.1,0-40.1,0-44.3,0
			c-22.2,0-40.4,18-40.4,40.4c0,8.3,0,13.6,0,21.8H217.7c-91.3,0-165.5-74.3-165.5-165.5V333.4c0-26.5,21.5-48,48-48h185.5
			c3.9,21,22.4,36.7,44,36.7l0,0c21.9,0,40.3-15.8,44-36.7h354.1c4,21.5,22.7,36.7,44,36.7l0,0c21.2,0,40-14.9,44-36.7h185.5
			c26.5,0,48,21.5,48,48v123.8l0,0C1049.7,548.4,975.5,622.7,884.2,622.7z"/>
	</g>
</g>
</svg>
