<?xml version="1.0" encoding="utf-8"?>
<!-- Generator: Adobe Illustrator 22.1.0, SVG Export Plug-In . SVG Version: 6.00 Build 0)  -->
<svg version="1.1" id="Layer_1" xmlns="http://www.w3.org/2000/svg" xmlns:xlink="http://www.w3.org/1999/xlink" x="0px" y="0px"
	 viewBox="0 0 1200 1142" style="enable-background:new 0 0 1200 1142;" xml:space="preserve">
<style type="text/css">
	.st0{fill:#797979;}
</style>
<g>
	<g>
		<path class="st0" d="M696.5,391.5H509.5c-9.4,0-17,7.6-17,17c0,9.4,7.6,17,17,17h187.1c9.4,0,17-7.6,17-17
			S705.9,391.5,696.5,391.5z"/>
	</g>
</g>
<g>
	<g>
		<path class="st0" d="M1167.5,852.1c-9.4,0-17,7.6-17,17v166.1c0,29.1-23.6,52.7-52.7,52.7h-455c-9.4,0-17,7.6-17,17
			c0,9.4,7.6,17,17,17h455c47.9,0,86.8-38.9,86.8-86.8V869.1C1184.6,859.7,1176.9,852.1,1167.5,852.1z"/>
	</g>
</g>
<g>
	<g>
		<path class="st0" d="M1097.8,279.4H894.9v-49.6C894.9,115.2,801.7,22,687.1,22H518.9c-114.6,0-207.8,93.2-207.8,207.8v49.6H108.2
			c-47.9,0-86.8,38.9-86.8,86.8v669c0,47.9,38.9,86.8,86.8,86.8h455c9.4,0,17-7.6,17-17c0-9.4-7.6-17-17-17h-455
			c-29.1,0-52.7-23.6-52.7-52.7V618.3c38.4,59.8,105.5,99.4,181.6,99.4h297.2v37.7c0,24.4,19.9,44.3,44.3,44.3h48.7
			c24.4,0,44.3-19.9,44.3-44.3v-37.7h297.2c76.2,0,143.2-39.7,181.6-99.4v171.3c0,9.4,7.6,17,17,17s17-7.6,17-17
			c0-15.2,0-408.2,0-423.5C1184.6,318.3,1145.6,279.4,1097.8,279.4z M518.9,56.1h168.2c95.8,0,173.7,77.9,173.7,173.7
			c0,42.1,0,47.7,0,74.7c0,8.3-6.8,15.1-15.1,15.1c-8.3,0-15.1-6.8-15.1-15.1c0-17.1,0-48,0-74.7c0-79.2-64.4-143.6-143.6-143.6
			H518.9c-79.2,0-143.6,64.4-143.6,143.6c0,81.6,0.3,76.1-0.7,79.2c-1.9,6.1-7.6,10.6-14.4,10.6c-8.3,0-15.1-6.8-15.1-15.1
			c0-27.5,0-47.5,0-74.7C345.2,134,423.1,56.1,518.9,56.1z M796.6,229.8v49.6H409.4v-49.6c0-60.4,49.1-109.5,109.5-109.5h168.2
			C747.5,120.3,796.6,169.4,796.6,229.8z M627.3,765.7h-48.7c-5.5,0-10.2-4.7-10.2-10.2c0-19.8,0-32.5,0-40.4c0-8.5,0-11.4,0-11.4
			c0-7.9,0-20.6,0-40.4c0-7.6,6.2-13.8,13.8-13.8h41.6c7.6,0,13.8,6.2,13.8,13.8c0,39.7,0,50.9,0,51.8c0-1.8,0-41.9,0,40.4
			C637.6,761,632.9,765.7,627.3,765.7z M968.9,683.7H671.6c0-9.1,0-14.8,0-24c0-24.4-19.9-44.3-44.3-44.3c-5.6,0-44,0-48.7,0
			c-24.4,0-44.3,19.9-44.3,44.3c0,9.1,0,14.9,0,24H237.1C137,683.7,55.5,602.2,55.5,502V366.2c0-29.1,23.6-52.7,52.7-52.7h203.7
			c4.2,23,24.6,40.2,48.3,40.2h0c24,0,44.1-17.4,48.3-40.2h388.8c4.5,23.5,24.9,40.2,48.3,40.2h0c23.2,0,43.8-16.4,48.3-40.2h203.7
			c29.1,0,52.7,23.6,52.7,52.7V502h0C1150.5,602.2,1069,683.7,968.9,683.7z"/>
	</g>
</g>
</svg>
