<svg width="18" height="16" viewBox="0 0 18 16" fill="none" xmlns="http://www.w3.org/2000/svg">
<path d="M15.0018 2.90002V2.9H15H12.1V2H12.1001L12.0999 1.99622C12.0884 1.69177 11.98 1.433 11.7737 1.22638C11.5674 1.01968 11.3087 0.911244 11.0037 0.900067L11.0037 0.9H11H7V0.899929L6.99622 0.900071C6.69177 0.911586 6.433 1.01999 6.22638 1.22626C6.01967 1.43263 5.91124 1.69151 5.90007 1.99634L5.9 1.99633V2V2.9H3V2.89998L2.99811 2.90002C2.41124 2.91111 1.91477 3.11601 1.51526 3.5152C1.11569 3.91443 0.910779 4.41096 0.900017 4.99817L0.9 4.99817V5V13H0.899982L0.900018 13.0019C0.911106 13.5888 1.11601 14.0852 1.5152 14.4847C1.91443 14.8843 2.41096 15.0892 2.99817 15.1L2.99817 15.1H3H15V15.1L15.0019 15.1C15.5888 15.0889 16.0852 14.884 16.4847 14.4848C16.8843 14.0856 17.0892 13.589 17.1 13.0018L17.1 13.0018V13L17.1 5L17.1 4.99811C17.0889 4.41124 16.884 3.91477 16.4848 3.51526C16.0856 3.11569 15.589 2.91078 15.0018 2.90002ZM7.1 2.1H10.9V2.9H7.1V2.1ZM4.9 13.9H3.00193C2.74535 13.8899 2.53597 13.8002 2.36768 13.6322C2.19947 13.4643 2.1098 13.2551 2.1 12.9981V7.1H4.9V13.9ZM11.9 13.9H6.1V7.1H11.9V13.9ZM15.9 7.1V12.9981C15.8899 13.2546 15.8002 13.464 15.6322 13.6323C15.4643 13.8005 15.2551 13.8902 14.9981 13.9H13.1V7.1H15.9ZM15.9 5.9H2.1V5.00196C2.11024 4.74531 2.19982 4.53594 2.3678 4.36768C2.53574 4.19947 2.74487 4.1098 3.00187 4.1H14.998C15.2547 4.11024 15.4641 4.19982 15.6323 4.3678C15.8005 4.53573 15.8902 4.74486 15.9 5.00185V5.9Z" fill="#555555" stroke="#555555" stroke-width="0.2"/>
</svg>
