<svg width="16" height="16" viewBox="0 0 16 16" fill="none" xmlns="http://www.w3.org/2000/svg">
<path d="M14.3899 2.13641H11.7083V1.92313C11.7083 0.863808 10.9851 0 10.0982 0H5.90476C5.01786 0 4.29464 0.863808 4.29464 1.92313V2.13641H1.6131C0.723214 2.13641 0 3.00022 0 4.0631V14.0769C0 15.1362 0.723214 16 1.61012 16H14.3899C15.2768 16 16 15.1362 16 14.0769V4.05954C16 3.00022 15.2768 2.13641 14.3899 2.13641ZM4.95833 1.92313C4.95833 1.30104 5.38095 0.796267 5.90179 0.796267H10.0923C10.6131 0.796267 11.0357 1.30104 11.0357 1.92313V2.13641H4.95833V1.92313ZM1.61012 2.93268H14.3869C14.9077 2.93268 15.3304 3.43746 15.3304 4.05954V5.62719L12.8661 8.2826C12.6339 8.53499 12.3333 8.67363 12.0179 8.67363H9.39583V7.65696C9.39583 7.43657 9.24702 7.25883 9.0625 7.25883H6.93155C6.74702 7.25883 6.59821 7.43657 6.59821 7.65696V8.67363H3.97917C3.66667 8.67363 3.36607 8.53499 3.13095 8.2826L0.663691 5.62719V4.05954C0.666667 3.44101 1.08929 2.93268 1.61012 2.93268ZM7.26786 8.0551H8.73214V10.0884H7.26786V8.0551ZM14.3899 15.2037H1.61012C1.08929 15.2037 0.666667 14.699 0.666667 14.0769V6.70073L2.6875 8.87625C3.04464 9.26016 3.50298 9.4699 3.98214 9.4699H6.60119V10.4866C6.60119 10.707 6.75 10.8847 6.93452 10.8847H9.06548C9.25 10.8847 9.39881 10.707 9.39881 10.4866V9.4699H12.0208C12.5 9.4699 12.9583 9.26016 13.3155 8.87625L15.3363 6.70073V14.0769C15.3333 14.699 14.9107 15.2037 14.3899 15.2037Z" fill="#3F71EB"/>
</svg>
