<?xml version="1.0" encoding="utf-8"?>
<!-- Generator: Adobe Illustrator 22.1.0, SVG Export Plug-In . SVG Version: 6.00 Build 0)  -->
<svg version="1.1" id="Layer_1" xmlns="http://www.w3.org/2000/svg" xmlns:xlink="http://www.w3.org/1999/xlink" x="0px" y="0px"
	 viewBox="0 0 1134 1080" style="enable-background:new 0 0 1134 1080;" xml:space="preserve">
<style type="text/css">
	.st0{fill:#37CDB1;}
</style>
<g>
	<g>
		<path class="st0" d="M652.8,369.3H477.1c-8.8,0-16,7.2-16,16s7.2,16,16,16H653c8.8,0,16-7.2,16-16S661.8,369.3,652.8,369.3z"/>
	</g>
</g>
<g>
	<g>
		<path class="st0" d="M1095.7,802.3c-8.8,0-16,7.2-16,16v156.2c0,27.4-22.2,49.5-49.5,49.5H602.4c-8.8,0-16,7.2-16,16
			c0,8.8,7.2,16,16,16h427.8c44.9,0,81.6-36.6,81.6-81.6V818.3C1111.7,809.5,1104.4,802.3,1095.7,802.3z"/>
	</g>
</g>
<g>
	<g>
		<path class="st0" d="M1030.1,263.9H839.3v-46.5C839.3,109.7,751.8,22,643.9,22h-158c-107.7,0-195.4,87.6-195.4,195.4V264H99.8
			c-44.9,0-81.6,36.6-81.6,81.6v628.9c0,44.9,36.6,81.6,81.6,81.6h427.8c8.8,0,16-7.2,16-16c0-8.8-7.2-16-16-16H99.8
			c-27.4,0-49.5-22.2-49.5-49.5V582.5c36.2,56.2,99.2,93.4,170.8,93.4h279.4v35.4c0,22.9,18.6,41.7,41.7,41.7h45.7
			c22.9,0,41.7-18.6,41.7-41.7v-35.4H909c71.5,0,134.6-37.2,170.8-93.6v161.3c0,8.8,7.2,16,16,16c8.8,0,16-7.2,16-16
			c0-14.3,0-383.7,0-398.1C1111.7,300.5,1075,263.9,1030.1,263.9z M485.9,54h158.2c90,0,163.3,73.2,163.3,163.3
			c0,39.5,0,44.9,0,70.2c0,7.8-6.3,14.2-14.2,14.2c-7.8,0-14.2-6.3-14.2-14.2c0-16,0-45.1,0-70.2c0-74.5-60.5-134.9-134.9-134.9
			H485.9c-74.5,0-134.9,60.5-134.9,134.9c0,76.6,0.3,71.5-0.6,74.5c-1.8,5.7-7.2,10-13.5,10c-7.8,0-14.2-6.3-14.2-14.2
			c0-25.8,0-44.6,0-70.2C322.6,127.2,395.9,54,485.9,54z M747,217.4V264H382.9v-46.6c0-56.8,46.2-102.9,102.9-102.9h158.2
			C700.8,114.5,747,160.6,747,217.4z M587.9,721h-45.7c-5.2,0-9.5-4.5-9.5-9.5c0-18.6,0-30.6,0-38c0-8,0-10.6,0-10.8
			c0-7.4,0-19.4,0-38c0-7.1,5.8-12.9,12.9-12.9h39.1c7.1,0,12.9,5.8,12.9,12.9c0,37.2,0,47.9,0,48.6c0-1.7,0-39.4,0,38
			C597.4,716.7,593.1,721,587.9,721z M908.9,643.9H629.4c0-8.5,0-13.8,0-22.5c0-22.9-18.6-41.7-41.7-41.7c-5.2,0-41.4,0-45.7,0
			c-22.9,0-41.7,18.6-41.7,41.7c0,8.6,0,14,0,22.5H221.1c-94.2,0-170.8-76.6-170.8-170.8V345.4c0-27.4,22.2-49.5,49.5-49.5h191.4
			c4,21.7,23.1,37.9,45.4,37.9l0,0c22.6,0,41.5-16.3,45.4-37.9h365.4c4.2,22.2,23.4,37.9,45.4,37.9l0,0c21.8,0,41.2-15.4,45.4-37.9
			h191.4c27.4,0,49.5,22.2,49.5,49.5v127.7l0,0C1079.7,567.3,1003,643.9,908.9,643.9z"/>
	</g>
</g>
</svg>
