<svg width="12" height="12" viewBox="0 0 12 12" fill="none" xmlns="http://www.w3.org/2000/svg">
<path d="M10.5939 5.79191C10.5939 6.39919 10.5939 7.00648 10.5939 7.61376C10.5939 8.58247 10.5939 9.54936 10.5939 10.5181C10.5939 10.7401 10.5939 10.9639 10.5939 11.1859C10.782 11.0024 10.9701 10.819 11.1581 10.6355C10.8158 10.6355 10.4735 10.6355 10.1293 10.6355C9.30735 10.6355 8.48352 10.6355 7.66157 10.6355C6.66658 10.6355 5.67159 10.6355 4.6766 10.6355C3.81891 10.6355 2.96311 10.6355 2.10542 10.6355C1.68975 10.6355 1.27031 10.6245 0.854633 10.6355C0.84899 10.6355 0.843347 10.6355 0.835824 10.6355C1.02391 10.819 1.212 11.0024 1.40009 11.1859C1.40009 10.5162 1.40009 9.84841 1.40009 9.17875C1.40009 8.19352 1.40009 7.20829 1.40009 6.22306C1.40009 5.85613 1.39633 5.49286 1.44523 5.12959C1.43771 5.17913 1.43207 5.22683 1.42454 5.27637C1.48473 4.84888 1.60323 4.43057 1.77251 4.03245C1.7537 4.07648 1.73489 4.12051 1.71608 4.16454C1.81765 3.93154 1.93614 3.70587 2.07157 3.49121C2.13928 3.3848 2.21075 3.27839 2.28599 3.17748C2.30292 3.15363 2.31985 3.13162 2.33677 3.1096C2.41577 3.00686 2.26906 3.19216 2.32361 3.12428C2.36499 3.07291 2.40637 3.02337 2.44963 2.97383C2.61703 2.78302 2.79759 2.60322 2.99132 2.4381C3.03835 2.39774 3.08537 2.35921 3.13427 2.32068C3.15684 2.30234 3.17941 2.28582 3.20198 2.26748C3.23208 2.24363 3.28474 2.2106 3.14744 2.30967C3.16436 2.29683 3.18129 2.28582 3.19634 2.27298C3.29979 2.19776 3.40512 2.12621 3.51421 2.05832C3.76061 1.90421 4.02205 1.77211 4.29102 1.66203C4.24588 1.68038 4.20074 1.69872 4.15559 1.71707C4.57315 1.54644 5.00952 1.43086 5.45905 1.37215C5.40827 1.37949 5.35936 1.38499 5.30858 1.39233C5.75999 1.33362 6.21705 1.33546 6.66846 1.39233C6.61768 1.38499 6.56877 1.37949 6.51799 1.37215C6.97693 1.43269 7.42458 1.55195 7.85154 1.72808C7.8064 1.70973 7.76126 1.69138 7.71612 1.67304C7.95311 1.77211 8.1807 1.88586 8.40076 2.01796C8.50985 2.08217 8.61518 2.15189 8.71863 2.22528C8.74308 2.24179 8.76565 2.2583 8.7901 2.27665C8.80515 2.28766 8.82208 2.29867 8.83713 2.31151C8.84465 2.31701 8.73368 2.23262 8.7807 2.26931C8.8296 2.30784 8.88039 2.34637 8.92741 2.38673C9.12114 2.54635 9.30171 2.72065 9.46723 2.90778C9.50861 2.95365 9.54998 3.00135 9.58948 3.04905C9.60829 3.07107 9.62522 3.09309 9.64403 3.1151C9.68165 3.16097 9.59513 3.05272 9.60077 3.06006C9.61582 3.07841 9.63086 3.09859 9.64403 3.11694C9.71926 3.21601 9.79262 3.31875 9.86033 3.42333C10.0164 3.66184 10.1519 3.91319 10.2647 4.17555C10.2459 4.13152 10.2271 4.08749 10.2083 4.04346C10.3795 4.44158 10.498 4.85622 10.5581 5.2837C10.5506 5.23417 10.545 5.18647 10.5375 5.13693C10.577 5.34975 10.592 5.56992 10.5939 5.79191C10.5939 6.07996 10.8534 6.35516 11.1581 6.34232C11.4628 6.32948 11.7243 6.10014 11.7224 5.79191C11.7187 4.72229 11.3895 3.6545 10.7801 2.76468C10.1857 1.89687 9.35625 1.17767 8.37443 0.75019C7.82521 0.51168 7.26847 0.359401 6.6741 0.284179C6.15122 0.21813 5.63397 0.238312 5.11297 0.311699C4.23271 0.436458 3.3675 0.786884 2.65088 1.30243C1.90793 1.83816 1.27971 2.52617 0.869679 3.33894C0.482216 4.10583 0.275318 4.94429 0.273438 5.79925C0.273438 6.08363 0.273438 6.36801 0.273438 6.65238C0.273438 7.2193 0.273438 7.78438 0.273438 8.3513C0.273438 8.93657 0.273438 9.52367 0.273438 10.1089C0.273438 10.452 0.273438 10.7933 0.273438 11.1364C0.273438 11.1529 0.273438 11.1694 0.273438 11.1859C0.273438 11.4831 0.531119 11.7363 0.837704 11.7363C1.18003 11.7363 1.52235 11.7363 1.86655 11.7363C2.6885 11.7363 3.51233 11.7363 4.33428 11.7363C5.32927 11.7363 6.32426 11.7363 7.31925 11.7363C8.17694 11.7363 9.03274 11.7363 9.89043 11.7363C10.308 11.7363 10.7255 11.7436 11.1412 11.7363C11.1469 11.7363 11.1525 11.7363 11.16 11.7363C11.4647 11.7363 11.7243 11.485 11.7243 11.1859C11.7243 10.5786 11.7243 9.97133 11.7243 9.36405C11.7243 8.39534 11.7243 7.42846 11.7243 6.45974C11.7243 6.23774 11.7243 6.01391 11.7243 5.79191C11.7243 5.50387 11.4647 5.22866 11.16 5.24151C10.8516 5.25435 10.5939 5.48185 10.5939 5.79191Z" fill="#3F71EB"/>
</svg>
