<svg width="16" height="16" viewBox="0 0 16 16" fill="none" xmlns="http://www.w3.org/2000/svg">
<path d="M1.10404 5.29613C1.20373 4.87048 1.33915 4.45401 1.51219 4.05221C1.49338 4.09625 1.47457 4.14028 1.45577 4.18431C1.68523 3.65959 1.97301 3.15872 2.31721 2.69821C2.33978 2.66886 2.36235 2.63767 2.38493 2.60831C2.39057 2.60098 2.42066 2.56979 2.41878 2.56428C2.41878 2.56061 2.33978 2.66152 2.37364 2.62116C2.42066 2.56245 2.46768 2.50374 2.51659 2.44686C2.61063 2.33678 2.70844 2.2267 2.80813 2.12212C3.00186 1.91847 3.20875 1.72399 3.42506 1.54236C3.49089 1.48732 3.55672 1.43411 3.62255 1.38274C3.65264 1.35889 3.68274 1.33687 3.71283 1.31302C3.56612 1.42861 3.69026 1.33137 3.72412 1.30569C3.85766 1.20845 3.99497 1.11671 4.13603 1.02681C4.38431 0.870864 4.50845 0.531447 4.33917 0.27459C4.17929 0.0342462 3.83133 -0.0905125 3.568 0.0764441C2.15922 0.968103 1.07018 2.25055 0.423158 3.75866C0.250116 4.16046 0.112811 4.57693 0.0150046 5.00258C-0.0508265 5.28329 0.103406 5.6117 0.409991 5.67958C0.695886 5.74563 1.03257 5.59702 1.10404 5.29613Z" fill="#3F71EB"/>
<path d="M11.8624 1.02924C11.994 1.11364 12.1238 1.19987 12.2498 1.2916C12.2818 1.31362 12.3119 1.33747 12.3439 1.36132C12.3928 1.39802 12.2931 1.32279 12.2968 1.32463C12.31 1.3338 12.3232 1.34481 12.3363 1.35582C12.4022 1.40719 12.468 1.45856 12.532 1.51177C12.7595 1.70074 12.974 1.90072 13.1771 2.11355C13.273 2.21445 13.3671 2.3172 13.4574 2.42361C13.5025 2.47681 13.5476 2.53002 13.5909 2.58506C13.6003 2.59607 13.6116 2.60708 13.6191 2.61992C13.6229 2.62726 13.5401 2.51901 13.5777 2.56671C13.6022 2.5979 13.6266 2.62909 13.6511 2.66212C13.8185 2.88411 13.9746 3.11528 14.1176 3.35379C14.2793 3.62533 14.4204 3.9042 14.5464 4.19408C14.5276 4.15005 14.5088 4.10602 14.49 4.06198C14.6611 4.46195 14.7966 4.87659 14.8944 5.29856C14.9602 5.57927 15.3082 5.77191 15.5884 5.68385C15.8912 5.58845 16.053 5.30774 15.9834 5.00685C15.6317 3.48406 14.7947 2.06951 13.6342 0.99622C13.2655 0.654968 12.8611 0.348575 12.436 0.0788754C12.1878 -0.0789079 11.8022 0.0219999 11.6649 0.277022C11.5125 0.55039 11.599 0.860453 11.8624 1.02924Z" fill="#3F71EB"/>
<path d="M12.5939 6.79191C12.5939 7.39919 12.5939 8.00648 12.5939 8.61376C12.5939 9.58247 12.5939 10.5494 12.5939 11.5181C12.5939 11.7401 12.5939 11.9639 12.5939 12.1859C12.782 12.0024 12.9701 11.819 13.1581 11.6355C12.8158 11.6355 12.4735 11.6355 12.1293 11.6355C11.3074 11.6355 10.4835 11.6355 9.66157 11.6355C8.66658 11.6355 7.67159 11.6355 6.6766 11.6355C5.81891 11.6355 4.96311 11.6355 4.10542 11.6355C3.68975 11.6355 3.27031 11.6245 2.85463 11.6355C2.84899 11.6355 2.84335 11.6355 2.83582 11.6355C3.02391 11.819 3.212 12.0024 3.40009 12.1859C3.40009 11.5162 3.40009 10.8484 3.40009 10.1787C3.40009 9.19352 3.40009 8.20829 3.40009 7.22306C3.40009 6.85613 3.39633 6.49286 3.44523 6.12959C3.43771 6.17913 3.43207 6.22683 3.42454 6.27637C3.48473 5.84888 3.60323 5.43057 3.77251 5.03245C3.7537 5.07648 3.73489 5.12051 3.71608 5.16454C3.81765 4.93154 3.93614 4.70587 4.07157 4.49121C4.13928 4.3848 4.21075 4.27839 4.28599 4.17748C4.30292 4.15363 4.31985 4.13162 4.33677 4.1096C4.41577 4.00686 4.26906 4.19216 4.32361 4.12428C4.36499 4.07291 4.40637 4.02337 4.44963 3.97383C4.61703 3.78302 4.79759 3.60322 4.99132 3.4381C5.03835 3.39774 5.08537 3.35921 5.13427 3.32068C5.15684 3.30234 5.17941 3.28582 5.20198 3.26748C5.23208 3.24363 5.28474 3.2106 5.14744 3.30967C5.16436 3.29683 5.18129 3.28582 5.19634 3.27298C5.29979 3.19776 5.40512 3.12621 5.51421 3.05832C5.76061 2.90421 6.02205 2.77211 6.29102 2.66203C6.24588 2.68038 6.20074 2.69872 6.15559 2.71707C6.57315 2.54644 7.00952 2.43086 7.45905 2.37215C7.40827 2.37949 7.35936 2.38499 7.30858 2.39233C7.75999 2.33362 8.21705 2.33546 8.66846 2.39233C8.61768 2.38499 8.56877 2.37949 8.51799 2.37215C8.97693 2.43269 9.42458 2.55195 9.85154 2.72808C9.8064 2.70973 9.76126 2.69138 9.71612 2.67304C9.95311 2.77211 10.1807 2.88586 10.4008 3.01796C10.5099 3.08217 10.6152 3.15189 10.7186 3.22528C10.7431 3.24179 10.7657 3.2583 10.7901 3.27665C10.8052 3.28766 10.8221 3.29867 10.8371 3.31151C10.8447 3.31701 10.7337 3.23262 10.7807 3.26931C10.8296 3.30784 10.8804 3.34637 10.9274 3.38673C11.1211 3.54635 11.3017 3.72065 11.4672 3.90778C11.5086 3.95365 11.55 4.00135 11.5895 4.04905C11.6083 4.07107 11.6252 4.09309 11.644 4.1151C11.6816 4.16097 11.5951 4.05272 11.6008 4.06006C11.6158 4.07841 11.6309 4.09859 11.644 4.11694C11.7193 4.21601 11.7926 4.31875 11.8603 4.42333C12.0164 4.66184 12.1519 4.91319 12.2647 5.17555C12.2459 5.13152 12.2271 5.08749 12.2083 5.04346C12.3795 5.44158 12.498 5.85622 12.5581 6.2837C12.5506 6.23417 12.545 6.18647 12.5375 6.13693C12.577 6.34975 12.592 6.56992 12.5939 6.79191C12.5939 7.07996 12.8534 7.35516 13.1581 7.34232C13.4628 7.32948 13.7243 7.10014 13.7224 6.79191C13.7187 5.72229 13.3895 4.6545 12.7801 3.76468C12.1857 2.89687 11.3563 2.17767 10.3744 1.75019C9.82521 1.51168 9.26847 1.3594 8.6741 1.28418C8.15122 1.21813 7.63397 1.23831 7.11297 1.3117C6.23271 1.43646 5.3675 1.78688 4.65088 2.30243C3.90793 2.83816 3.27971 3.52617 2.86968 4.33894C2.48222 5.10583 2.27532 5.94429 2.27344 6.79925C2.27344 7.08363 2.27344 7.36801 2.27344 7.65238C2.27344 8.2193 2.27344 8.78438 2.27344 9.3513C2.27344 9.93657 2.27344 10.5237 2.27344 11.1089C2.27344 11.452 2.27344 11.7933 2.27344 12.1364C2.27344 12.1529 2.27344 12.1694 2.27344 12.1859C2.27344 12.4831 2.53112 12.7363 2.8377 12.7363C3.18003 12.7363 3.52235 12.7363 3.86655 12.7363C4.6885 12.7363 5.51233 12.7363 6.33428 12.7363C7.32927 12.7363 8.32426 12.7363 9.31925 12.7363C10.1769 12.7363 11.0327 12.7363 11.8904 12.7363C12.308 12.7363 12.7255 12.7436 13.1412 12.7363C13.1469 12.7363 13.1525 12.7363 13.16 12.7363C13.4647 12.7363 13.7243 12.485 13.7243 12.1859C13.7243 11.5786 13.7243 10.9713 13.7243 10.3641C13.7243 9.39534 13.7243 8.42846 13.7243 7.45974C13.7243 7.23774 13.7243 7.01391 13.7243 6.79191C13.7243 6.50387 13.4647 6.22866 13.16 6.24151C12.8516 6.25435 12.5939 6.48185 12.5939 6.79191Z" fill="#3F71EB"/>
<path d="M1.17213 12.7344C1.29439 12.7344 1.41665 12.7344 1.53891 12.7344C1.86806 12.7344 2.1991 12.7344 2.52825 12.7344C3.01917 12.7344 3.5082 12.7344 3.99911 12.7344C4.59535 12.7344 5.18971 12.7344 5.78595 12.7344C6.4405 12.7344 7.09693 12.7344 7.75148 12.7344C8.41356 12.7344 9.07563 12.7344 9.73582 12.7344C10.349 12.7344 10.964 12.7344 11.5772 12.7344C12.0982 12.7344 12.6192 12.7344 13.1421 12.7344C13.5164 12.7344 13.8888 12.7344 14.2631 12.7344C14.4418 12.7344 14.6186 12.7363 14.7973 12.7344C14.8048 12.7344 14.8123 12.7344 14.8199 12.7344C15.1152 12.7344 15.3973 12.4813 15.3841 12.184C15.371 11.885 15.1359 11.6336 14.8199 11.6336C14.6976 11.6336 14.5753 11.6336 14.4531 11.6336C14.1239 11.6336 13.7929 11.6336 13.4637 11.6336C12.9728 11.6336 12.4838 11.6336 11.9929 11.6336C11.3966 11.6336 10.8023 11.6336 10.206 11.6336C9.55149 11.6336 8.89506 11.6336 8.24051 11.6336C7.57844 11.6336 6.91637 11.6336 6.25618 11.6336C5.64301 11.6336 5.02796 11.6336 4.41479 11.6336C3.89378 11.6336 3.37277 11.6336 2.84989 11.6336C2.47559 11.6336 2.10317 11.6336 1.72888 11.6336C1.55019 11.6336 1.37339 11.6318 1.1947 11.6336C1.18718 11.6336 1.17966 11.6336 1.17213 11.6336C0.876832 11.6336 0.594699 11.8868 0.607865 12.184C0.621032 12.4831 0.854262 12.7344 1.17213 12.7344Z" fill="#3F71EB"/>
<path d="M9.17359 13.7827C9.17359 13.8597 9.16795 13.9349 9.15854 14.0102C9.16607 13.9606 9.17171 13.9129 9.17923 13.8634C9.15666 14.0102 9.11716 14.1533 9.05886 14.289C9.07766 14.245 9.09647 14.201 9.11528 14.1569C9.07202 14.2523 9.02124 14.3459 8.96105 14.4321C8.94788 14.4523 8.93284 14.4707 8.91779 14.4908C8.86136 14.5697 9.01183 14.3826 8.946 14.4542C8.91027 14.4927 8.87641 14.533 8.83879 14.5697C8.80117 14.6064 8.76168 14.6395 8.7203 14.6743C8.6507 14.733 8.83691 14.5918 8.75791 14.6468C8.73722 14.6615 8.71841 14.6743 8.69772 14.689C8.60932 14.7477 8.5134 14.7972 8.41559 14.8394C8.46073 14.8211 8.50587 14.8027 8.55102 14.7844C8.40995 14.8413 8.26512 14.8816 8.11465 14.9018C8.16543 14.8945 8.21434 14.889 8.26512 14.8816C8.10901 14.9018 7.95289 14.9018 7.79678 14.8816C7.84756 14.889 7.89647 14.8945 7.94725 14.9018C7.79678 14.8798 7.65007 14.8413 7.51088 14.7844C7.55603 14.8027 7.60117 14.8211 7.64631 14.8394C7.5485 14.7972 7.45258 14.7477 7.36417 14.689C7.34348 14.6761 7.32468 14.6615 7.30399 14.6468C7.22311 14.5918 7.41496 14.7385 7.3416 14.6743C7.30211 14.6395 7.26073 14.6064 7.22311 14.5697C7.18549 14.533 7.15163 14.4945 7.1159 14.4542C7.05571 14.3863 7.20054 14.5679 7.14411 14.4908C7.12906 14.4707 7.1159 14.4523 7.10085 14.4321C7.04066 14.3459 6.98988 14.2523 6.94662 14.1569C6.96543 14.201 6.98423 14.245 7.00304 14.289C6.94474 14.1514 6.90336 14.0102 6.88267 13.8634C6.89019 13.9129 6.89583 13.9606 6.90336 14.0102C6.89395 13.9349 6.88831 13.8579 6.88831 13.7827C6.88643 13.4946 6.63063 13.2194 6.32404 13.2322C6.01934 13.2451 5.75789 13.4744 5.75978 13.7827C5.76354 14.2193 5.89332 14.6725 6.15476 15.0284C6.44254 15.421 6.81684 15.7036 7.28142 15.8724C8.12593 16.1824 9.17171 15.9109 9.74726 15.2339C10.099 14.8193 10.3021 14.3239 10.3059 13.7808C10.3078 13.4928 10.0444 13.2176 9.74162 13.2304C9.43127 13.2451 9.17547 13.4744 9.17359 13.7827Z" fill="#3F71EB"/>
</svg>
