<svg width="20" height="20" viewBox="0 0 20 20" fill="none" xmlns="http://www.w3.org/2000/svg">
<path d="M5.9375 0H6.02344C7.26953 0 8.42578 0.660547 9.05859 1.73633L10 3.33828L10.9414 1.73633C11.5742 0.660547 12.7305 0 13.9766 0H14.0625C15.9609 0 17.5 1.53906 17.5 3.4375C17.5 4 17.3633 4.49609 17.125 5H18.75C19.4414 5 20 5.55859 20 6.25V8.75C20 9.44141 19.4414 10 18.75 10H1.25C0.559766 10 0 9.44141 0 8.75V6.25C0 5.55859 0.559766 5 1.25 5H2.875C2.63516 4.49609 2.5 4 2.5 3.4375C2.5 1.53906 4.03906 0 5.9375 0ZM7.44141 2.68672C7.14453 2.18398 6.60547 1.875 6.02344 1.875H5.9375C5.07422 1.875 4.375 2.57461 4.375 3.4375C4.375 4.30078 5.07422 5 5.9375 5H8.80078L7.44141 2.68672ZM14.0625 1.875H13.9766C13.3945 1.875 12.8555 2.18398 12.5586 2.68672L11.1992 5H14.0625C14.9258 5 15.625 4.30078 15.625 3.4375C15.625 2.57461 14.9258 1.875 14.0625 1.875ZM1.25 11.25H8.75V20H3.125C2.08945 20 1.25 19.1602 1.25 18.125V11.25ZM11.25 20V11.25H18.75V18.125C18.75 19.1602 17.9102 20 16.875 20H11.25Z" fill="#AAAAAA"/>
</svg>
