<svg width="14" height="12" viewBox="0 0 14 12" fill="none" xmlns="http://www.w3.org/2000/svg">
<path d="M0.833253 6.66668L10.7166 6.66668L7.69159 10.3C7.55014 10.4702 7.48209 10.6896 7.5024 10.91C7.52272 11.1303 7.62974 11.3336 7.79992 11.475C7.9701 11.6165 8.1895 11.6845 8.40986 11.6642C8.63021 11.6439 8.83347 11.5369 8.97492 11.3667L13.1416 6.36668C13.1696 6.32691 13.1947 6.28513 13.2166 6.24168C13.2166 6.20001 13.2166 6.17501 13.2749 6.13335C13.3127 6.0378 13.3325 5.93609 13.3333 5.83335C13.3325 5.73061 13.3127 5.6289 13.2749 5.53335C13.2749 5.49168 13.2749 5.46668 13.2166 5.42501C13.1947 5.38156 13.1696 5.33978 13.1416 5.30001L8.97492 0.300016C8.89657 0.205947 8.79845 0.130296 8.68755 0.0784449C8.57664 0.0265936 8.45568 -0.000183633 8.33325 1.47422e-05C8.13854 -0.000365757 7.94984 0.0674472 7.79992 0.191681C7.71554 0.261639 7.64578 0.347557 7.59466 0.444513C7.54353 0.541469 7.51203 0.647558 7.50197 0.756705C7.49191 0.865852 7.50348 0.975913 7.53601 1.08058C7.56855 1.18525 7.62142 1.28248 7.69159 1.36668L10.7166 5.00002L0.833253 5.00002C0.612239 5.00002 0.400278 5.08781 0.243997 5.24409C0.0877165 5.40037 -7.96843e-05 5.61234 -7.9665e-05 5.83335C-7.96457e-05 6.05436 0.0877166 6.26632 0.243997 6.4226C0.400278 6.57889 0.612239 6.66668 0.833253 6.66668Z" fill="#3F71EB"/>
</svg>
