<svg width="13" height="18" viewBox="0 0 13 18" fill="none" xmlns="http://www.w3.org/2000/svg">
<path d="M7.55089e-05 1.5C7.55089e-05 0.809766 0.559755 0.25 1.24999 0.25H11.25C11.9414 0.25 12.5 0.809766 12.5 1.5C12.5 2.19023 11.9414 2.75 11.25 2.75H9.05468C9.42968 3.3125 9.70702 3.94531 9.85936 4.625H11.25C11.9414 4.625 12.5 5.18359 12.5 5.875C12.5 6.56641 11.9414 7.125 11.25 7.125H9.85936C9.34374 9.40234 7.4414 11.1562 5.08983 11.457L10.7266 15.4492C11.2539 15.8828 11.418 16.6641 11.0156 17.2266C10.6172 17.7539 9.83593 17.918 9.27343 17.5156L0.523427 11.2656C0.0813567 10.918 -0.106104 10.3867 0.0597161 9.86719C0.225536 9.31641 0.70663 9 1.24999 9H4.37499C5.65624 9 6.7578 8.23047 7.23827 7.125H1.24999C0.559755 7.125 7.55089e-05 6.56641 7.55089e-05 5.875C7.55089e-05 5.18359 0.559755 4.625 1.24999 4.625H7.23827C6.7578 3.51953 5.65624 2.75 4.37499 2.75H1.24999C0.559755 2.75 7.55089e-05 2.19023 7.55089e-05 1.5Z" fill="#AAAAAA"/>
</svg>
