<?xml version="1.0" encoding="utf-8"?>
<!-- Generator: Adobe Illustrator 22.1.0, SVG Export Plug-In . SVG Version: 6.00 Build 0)  -->
<svg version="1.1" id="Layer_1" xmlns="http://www.w3.org/2000/svg" xmlns:xlink="http://www.w3.org/1999/xlink" x="0px" y="0px"
	 viewBox="0 0 1200 812" style="enable-background:new 0 0 1200 812;" xml:space="preserve">
<style type="text/css">
	.st0{fill:#37CDB1;}
</style>
<g>
	<g>
		<path class="st0" d="M13.1,425.4l371.3,371.3c9.7,9.7,25.3,9.7,35,0c9.7-9.7,9.7-25.3,0-35l-329-328.8h1078.7
			c13.7,0,24.8-11.1,24.8-24.8s-11.1-24.8-24.8-24.8H90.4l329-329c9.7-9.7,9.7-25.3,0-35c-4.9-4.9-11.1-7.2-17.4-7.2
			c-6.3,0-12.8,2.3-17.4,7.2L13.4,390.4C3.6,400.1,3.6,415.9,13.1,425.4z"/>
	</g>
</g>
</svg>
