<?xml version="1.0" encoding="utf-8"?>
<!-- Generator: Adobe Illustrator 22.1.0, SVG Export Plug-In . SVG Version: 6.00 Build 0)  -->
<svg version="1.1" id="Layer_1" xmlns="http://www.w3.org/2000/svg" xmlns:xlink="http://www.w3.org/1999/xlink" x="0px" y="0px"
	 viewBox="0 0 1054.6 1140.1" style="enable-background:new 0 0 1054.6 1140.1;" xml:space="preserve">
<style type="text/css">
	.st0{fill:#37CDB1;}
</style>
<path class="st0" d="M1013.9,190.3c0,85.2-69.2,154.4-154.4,154.4s-154.4-69.2-154.4-154.4S774.3,35.9,859.5,35.9
	S1013.9,105.1,1013.9,190.3z"/>
<path class="st0" d="M859.5,380.1c-104.8,0-190.1-85.2-190.1-190.1S754.7,0,859.5,0s190.1,85.2,190.1,190.1S964.3,380.1,859.5,380.1
	z M859.5,71.5c-65.4,0-118.8,53.2-118.8,118.8c0,65.4,53.2,118.8,118.8,118.8S978.3,256,978.3,190.3S925.1,71.5,859.5,71.5z"/>
<path class="st0" d="M1013.9,950c0,85.2-69.2,154.4-154.4,154.4S705.1,1035.3,705.1,950s69.2-154.4,154.4-154.4
	S1013.9,864.8,1013.9,950z"/>
<path class="st0" d="M859.5,1140.1c-104.8,0-190.1-85.2-190.1-190.1S754.7,760,859.5,760s190.1,85.2,190.1,190.1
	S964.3,1140.1,859.5,1140.1z M859.5,831.5c-65.4,0-118.8,53.2-118.8,118.8c0,65.4,53.2,118.8,118.8,118.8s118.8-53.2,118.8-118.8
	C978.3,884.7,925.1,831.5,859.5,831.5z"/>
<path class="st0" d="M349.1,570.2c0,85.2-69.2,154.4-154.4,154.4S40.2,655.4,40.2,570.2s69.2-154.4,154.4-154.4
	S349.1,484.9,349.1,570.2z"/>
<path class="st0" d="M194.7,760.2C89.9,760.2,4.6,675,4.6,570.2s85.2-190.1,190.1-190.1s190.1,85.2,190.1,190.1
	S299.5,760.2,194.7,760.2z M194.7,451.4c-65.4,0-118.8,53.2-118.8,118.8S129,689,194.7,689c65.4,0,118.8-53.2,118.8-118.8
	S260.1,451.4,194.7,451.4z"/>
<path class="st0" d="M306.9,547.3c-16.5,0-32.6-8.7-41.2-23.9c-13-22.6-5.1-51.6,17.8-64.9l440.4-251.1c22.6-13,51.6-5.1,64.9,17.8
	c13,22.6,5.1,51.6-17.8,64.9L330.3,541.2C322.9,545.5,314.8,547.3,306.9,547.3z"/>
<path class="st0" d="M747.6,939.1c-7.9,0-16-2-23.4-6.1L283.5,681.9c-22.6-13-30.8-42-17.8-64.9c13-22.9,42-30.8,64.9-17.8
	l440.7,251.1c22.6,13,30.8,42,17.8,64.9C779.9,930.7,763.8,939.1,747.6,939.1z"/>
</svg>
