<svg width="10" height="10" viewBox="0 0 10 10" fill="none" xmlns="http://www.w3.org/2000/svg">
<path d="M4.3457 1.30664L4.7793 0.873047C4.96289 0.689453 5.25977 0.689453 5.44141 0.873047L9.23828 4.66797C9.42187 4.85156 9.42187 5.14844 9.23828 5.33008L5.44336 9.125C5.25977 9.30859 4.96289 9.30859 4.78125 9.125L4.34766 8.69141C4.16211 8.50586 4.16602 8.20313 4.35547 8.02148L6.70703 5.78125L1.09375 5.78125C0.833984 5.78125 0.625 5.57227 0.625 5.3125L0.625 4.6875C0.625 4.42773 0.833984 4.21875 1.09375 4.21875L6.70703 4.21875L4.35352 1.97656C4.16211 1.79492 4.1582 1.49219 4.3457 1.30664Z" fill="#3F71EB"/>
</svg>
