<?xml version="1.0" encoding="utf-8"?>
<!-- Generator: Adobe Illustrator 25.0.0, SVG Export Plug-In . SVG Version: 6.00 Build 0)  -->
<svg version="1.1" id="Layer_1" xmlns="http://www.w3.org/2000/svg" xmlns:xlink="http://www.w3.org/1999/xlink" x="0px" y="0px"
	 viewBox="0 0 700 700" style="enable-background:new 0 0 700 700;" xml:space="preserve">
<style type="text/css">
	.st0{fill:#01B792;}
</style>
<g>
	<path class="st0" d="M465,443.9c1.9,0,3.6-0.7,5-2.1s2-3.1,2-4.9V193.7c0-1.9-0.8-3.7-2.2-5.1l-73.7-70.6c-0.7-0.5-1.5-0.9-2.2-1.4
		c-0.8-0.4-1.7-0.5-2.7-0.5H235c-1.9,0-3.6,0.7-5,2.1s-2,3.1-2,4.9v313.8c0,1.9,0.7,3.6,2,4.9s3.1,2.1,5,2.1L465,443.9z
		 M398.3,139.5l52.6,50.3h-52.6V139.5z M242,130.1h142.3v66.7c0,1.9,0.7,3.6,2.1,4.9s3.1,2.1,4.9,2.1H458v226H242V130.1z"/>
	<path class="st0" d="M409.7,293.6H272c-3.9,0-7,3.1-7,7c0,3.9,3.1,7,7,7h137.7h0c3.9,0,7-3.1,7-7
		C416.7,296.8,413.6,293.6,409.7,293.6L409.7,293.6z"/>
	<path class="st0" d="M409.7,326.9H272c-3.9,0-7,3.1-7,7s3.1,7,7,7h137.7h0c3.9,0,7-3.1,7-7S413.6,326.9,409.7,326.9L409.7,326.9z"
		/>
	<path class="st0" d="M358.8,259.7H272c-3.9,0-7,3.1-7,7c0,3.9,3.1,7,7,7h86.8c3.9,0,7-3.1,7-7C365.8,262.8,362.6,259.7,358.8,259.7
		z"/>
</g>
</svg>
