<svg width="13" height="16" viewBox="0 0 13 16" fill="none" xmlns="http://www.w3.org/2000/svg">
<path d="M12.409 5.71429H9.2287L11.7554 0.826857C11.847 0.649714 11.837 0.439429 11.7294 0.270857C11.6219 0.102286 11.4322 0 11.2271 0H0.590845C0.418301 0 0.25462 0.0725714 0.142348 0.199429C0.0300761 0.326286 -0.01956 0.493143 0.00703073 0.658286L1.18884 8.08686C1.23316 8.36572 1.48075 8.57143 1.77266 8.57143H4.089L3.54714 15.3846C3.52765 15.6303 3.67242 15.86 3.9076 15.9554C3.98146 15.9857 4.05946 16 4.13628 16C4.3035 16 4.46659 15.9314 4.58123 15.8046L12.8539 6.66171C13.0064 6.49314 13.043 6.25371 12.9473 6.04971C12.8515 5.84571 12.6412 5.71429 12.409 5.71429Z" fill="#3F71EB"/>
</svg>
