<svg width="13" height="16" viewBox="0 0 13 16" fill="none" xmlns="http://www.w3.org/2000/svg">
<path d="M8.78454 5.48467L8.40734 6.21429H9.2287H12.409C12.454 6.21429 12.4841 6.23963 12.4946 6.26212C12.5036 6.28133 12.5021 6.30518 12.4831 6.32625C12.4831 6.32628 12.4831 6.3263 12.4831 6.32633L4.21047 15.4691L4.21026 15.4693C4.19447 15.4868 4.16827 15.5 4.13628 15.5C4.12111 15.5 4.10787 15.4972 4.09728 15.4928L4.09559 15.4921C4.05485 15.4756 4.04397 15.4444 4.04558 15.4241L4.58743 8.61107L4.63035 8.07143H4.089H1.77266C1.71452 8.07143 1.68651 8.0327 1.68264 8.00838L1.68263 8.0083L0.500821 0.579729L0.500822 0.579729L0.500673 0.578801C0.498477 0.565168 0.501328 0.54825 0.51677 0.530802C0.53171 0.513921 0.55779 0.5 0.590845 0.5H11.2271C11.2667 0.5 11.295 0.519547 11.3079 0.539779C11.3202 0.559152 11.3204 0.579543 11.3113 0.597216L11.3113 0.597237L8.78454 5.48467Z" stroke="#3F71EB"/>
</svg>
