<?xml version="1.0" encoding="utf-8"?>
<!-- Generator: Adobe Illustrator 22.1.0, SVG Export Plug-In . SVG Version: 6.00 Build 0)  -->
<svg version="1.1" id="Layer_1" xmlns="http://www.w3.org/2000/svg" xmlns:xlink="http://www.w3.org/1999/xlink" x="0px" y="0px"
	 viewBox="0 0 1200 1200" style="enable-background:new 0 0 1200 1200;" xml:space="preserve">
<style type="text/css">
	.st0{fill:#37CDB1;}
</style>
<path class="st0" d="M1091.3,222.2H288.7c-59.8,0-108.7-48.9-108.7-108.7v0C180,53.7,228.9,4.8,288.7,4.8h802.7
	c59.8,0,108.7,48.9,108.7,108.7v0C1200,173.3,1151.1,222.2,1091.3,222.2z"/>
<path class="st0" d="M917.3,720.2H114.7C54.9,720.2,6,671.3,6,611.5v0c0-59.8,48.9-108.7,108.7-108.7h802.7
	c59.8,0,108.7,48.9,108.7,108.7v0C1026,671.3,977.1,720.2,917.3,720.2z"/>
<path class="st0" d="M1091.3,1200.2H288.7c-59.8,0-108.7-48.9-108.7-108.7v0c0-59.8,48.9-108.7,108.7-108.7h802.7
	c59.8,0,108.7,48.9,108.7,108.7v0C1200,1151.3,1151.1,1200.2,1091.3,1200.2z"/>
</svg>
