<svg width="16" height="16" viewBox="0 0 16 16" fill="none" xmlns="http://www.w3.org/2000/svg">
<path d="M15.5476 13.3799L11.0143 8.84977L10.7881 9.07596L10.1567 8.44451L9.72629 8.8749L9.23306 8.38168L11.7966 5.81816C12.1076 5.92497 12.4343 5.97838 12.7642 5.97838C13.5621 5.97838 14.3098 5.66736 14.8753 5.10502C15.6136 4.36675 15.9089 3.31747 15.6639 2.29646L15.5885 1.98545L14.0145 3.55937L12.5066 3.24836L12.1956 1.7404L13.7695 0.166478L13.4585 0.0910802C13.2291 0.0376735 12.9967 0.00939941 12.761 0.00939941C11.9631 0.00939941 11.2154 0.320415 10.6531 0.882755C9.81111 1.7247 9.5535 3.00645 9.99018 4.10286L7.47379 6.6224L4.74376 3.88923L4.84744 3.78556L4.46417 2.71743L2.59179 1.48594L1.49853 2.58234L2.73316 4.45158L3.80129 4.83485L3.90497 4.73117L6.63185 7.4612L3.96151 10.1315C2.92794 9.77653 1.72472 10.0027 0.882779 10.8415C0.144511 11.5798 -0.150797 12.6291 0.0911041 13.6501L0.166502 13.9611L1.74043 12.3872L3.24838 12.6982L3.56254 14.2061L1.98861 15.7801L2.30277 15.8555C3.27037 16.0848 4.34164 15.8303 5.10819 15.0638C5.94699 14.225 6.20774 12.9464 5.77106 11.8468L8.39741 9.22047L8.89063 9.7137L8.45396 10.1472L9.08541 10.7787L8.85922 11.0049L13.3925 15.5382C13.9863 16.1351 14.9507 16.1351 15.5476 15.5382C16.1414 14.9413 16.1414 13.9768 15.5476 13.3799ZM1.96034 2.62947L2.63892 1.94775L4.16572 2.95619L4.43275 3.6976L3.70705 4.42016L2.96878 4.15313L1.96034 2.62947ZM4.15629 4.47985L4.4893 4.14684L7.21618 6.87372L6.88003 7.20987L4.15629 4.47985ZM4.85058 14.8093C4.27567 15.3842 3.49342 15.6481 2.71117 15.5633L3.94895 14.3255L3.54997 12.3966L1.62105 11.9976L0.38327 13.2354C0.295306 12.4469 0.565481 11.6646 1.13725 11.0928C2.43157 9.79852 4.03377 10.5431 4.04948 10.5462L10.4174 4.17826L10.3672 4.06516C9.92107 3.07871 10.1378 1.89748 10.9075 1.13094C11.4039 0.634571 12.0605 0.364397 12.761 0.364397C12.8553 0.364397 12.9527 0.37068 13.0469 0.380104L11.8091 1.61788L12.2081 3.5468L14.1371 3.94578L15.3748 2.70801C15.4628 3.49654 15.1926 4.27879 14.6209 4.84741C14.1245 5.34378 13.4648 5.6171 12.7642 5.6171C12.4375 5.6171 12.117 5.55741 11.8154 5.44117L11.7055 5.40033L5.34066 11.7651C5.34066 11.784 6.21402 13.4459 4.85058 14.8093ZM9.13882 9.45923L8.64873 8.96601L8.98174 8.633L9.47497 9.12623C9.45612 9.14508 9.11683 9.48123 9.13882 9.45923ZM8.95975 10.1472C8.98488 10.1221 10.1755 8.93145 10.1567 8.9503L10.5337 9.32729L9.33988 10.5242L8.95975 10.1472ZM15.2931 15.2806C14.8376 15.7361 14.1025 15.7361 13.647 15.2806L9.36815 11.0017L11.0143 9.35556L15.2931 13.6344C15.7487 14.0899 15.7487 14.8282 15.2931 15.2806Z" fill="#3F71EB" stroke="#3F71EB" stroke-width="0.5" stroke-miterlimit="10"/>
</svg>
