<svg width="16" height="16" viewBox="0 0 16 16" fill="none" xmlns="http://www.w3.org/2000/svg">
<path d="M15.5471 13.3798L11.0138 8.84965L10.7877 9.07584L10.1562 8.44438L9.7258 8.87478L9.23258 8.38155L11.7961 5.81803C12.1071 5.92485 12.4338 5.97825 12.7637 5.97825C13.5617 5.97825 14.3093 5.66724 14.8748 5.1049C15.6131 4.36663 15.9084 3.31735 15.6634 2.29634L15.588 1.98532L14.014 3.55925L12.5061 3.24823L12.1951 1.74028L13.769 0.166356L13.458 0.0909581C13.2287 0.0375515 12.9962 0.00927734 12.7606 0.00927734C11.9626 0.00927734 11.2149 0.320293 10.6526 0.882633C9.81063 1.72457 9.55302 3.00633 9.98969 4.10274L7.4733 6.62228L4.74328 3.88911L4.84695 3.78544L4.46368 2.71731L2.5913 1.48581L1.49804 2.58222L2.73267 4.45145L3.80081 4.83472L3.90448 4.73105L6.63136 7.46107L3.96103 10.1314C2.92745 9.77641 1.72423 10.0026 0.882291 10.8414C0.144022 11.5797 -0.151285 12.629 0.0906158 13.65L0.166013 13.961L1.73994 12.3871L3.24789 12.6981L3.56205 14.206L1.98812 15.7799L2.30228 15.8553C3.26988 16.0847 4.34116 15.8302 5.1077 15.0637C5.9465 14.2249 6.20725 12.9463 5.77057 11.8467L8.39692 9.22035L8.89015 9.71358L8.45347 10.1471L9.08492 10.7786L8.85873 11.0048L13.392 15.538C13.9858 16.1349 14.9502 16.1349 15.5471 15.538C16.1409 14.9411 16.1409 13.9767 15.5471 13.3798ZM1.95985 2.62934L2.63843 1.94762L4.16523 2.95607L4.43226 3.69748L3.70656 4.42004L2.96829 4.153L1.95985 2.62934ZM4.1558 4.47973L4.48881 4.14672L7.21569 6.8736L6.87954 7.20975L4.1558 4.47973ZM4.85009 14.8092C4.27518 15.3841 3.49293 15.648 2.71068 15.5632L3.94846 14.3254L3.54948 12.3965L1.62056 11.9975L0.382782 13.2353C0.294818 12.4467 0.564992 11.6645 1.13676 11.0927C2.43108 9.7984 4.03328 10.543 4.04899 10.5461L10.4169 4.17814L10.3667 4.06504C9.92058 3.07859 10.1373 1.89736 10.907 1.13082C11.4034 0.634449 12.06 0.364274 12.7606 0.364274C12.8548 0.364274 12.9522 0.370558 13.0464 0.379982L11.8087 1.61776L12.2076 3.54668L14.1366 3.94566L15.3743 2.70788C15.4623 3.49642 15.1921 4.27867 14.6204 4.84729C14.124 5.34366 13.4643 5.61697 12.7637 5.61697C12.437 5.61697 12.1165 5.55728 11.8149 5.44105L11.705 5.40021L5.34017 11.765C5.34017 11.7839 6.21353 13.4458 4.85009 14.8092ZM9.13833 9.45911L8.64824 8.96589L8.98125 8.63288L9.47448 9.12611C9.45563 9.14495 9.11634 9.4811 9.13833 9.45911ZM8.95926 10.1471C8.98439 10.122 10.175 8.93133 10.1562 8.95018L10.5332 9.32717L9.33939 10.5241L8.95926 10.1471ZM15.2927 15.2804C14.8371 15.736 14.102 15.736 13.6465 15.2804L9.36766 11.0016L11.0138 9.35544L15.2927 13.6343C15.7482 14.0898 15.7482 14.828 15.2927 15.2804Z" fill="#949494" stroke="#949494" stroke-width="0.5" stroke-miterlimit="10"/>
</svg>
