<svg width="112" height="40" viewBox="0 0 112 40" fill="none" xmlns="http://www.w3.org/2000/svg">
<g clip-path="url(#clip0_33310_1661)">
<path d="M27.5893 40C26.942 40 26.2946 39.8214 25.7143 39.442C24.1295 38.4152 23.6607 36.2723 24.7098 34.6652L36.4732 16.5848C37.5 15 39.6428 14.5312 41.25 15.5804C42.8348 16.6071 43.3036 18.75 42.2545 20.3571L30.4911 38.4375C29.8214 39.442 28.7277 40 27.5893 40Z" fill="#3F71EB"/>
<path d="M7.90177 26.4509C7.20981 26.4509 6.51784 26.25 5.91516 25.8259C4.35266 24.7322 3.99552 22.567 5.08927 21.0268L15.3125 6.1384C16.4062 4.5759 18.5714 4.21876 20.1116 5.31251C21.6741 6.40626 22.0312 8.57144 20.9375 10.1116L10.7143 25C10.0446 25.9375 8.99552 26.4509 7.90177 26.4509Z" fill="#E02B59"/>
<path d="M3.4375 12.7009C2.76785 12.7009 2.09821 12.5 1.49553 12.0982C-0.0669691 11.0268 -0.468755 8.88392 0.602674 7.2991L4.44196 1.49553C5.51339 -0.0669691 7.65625 -0.468755 9.24107 0.602674C10.8036 1.6741 11.2054 3.81696 10.1339 5.40178L6.29464 11.2054C5.625 12.1875 4.53125 12.7009 3.4375 12.7009Z" fill="#EEB268"/>
<path d="M21.6518 27.6562C21.0045 27.6562 20.3571 27.4777 19.7768 27.0982C18.192 26.0491 17.7232 23.9286 18.7723 22.3214L31.8973 1.62946C32.9464 0.0446432 35.067 -0.424107 36.6741 0.625C38.2589 1.67411 38.7277 3.79464 37.6786 5.40179L24.5536 26.0938C23.8839 27.1205 22.7678 27.6562 21.6518 27.6562Z" fill="#00B48E"/>
<path d="M54.8661 7.3884V17.0982H51.875V7.3884H48.0357V4.73215H58.7053V7.3884H54.8661Z" fill="#151E34"/>
<path d="M67.7009 17.0982L65.491 12.8125H63.1919V17.0982H60.2009V4.73215H66.0044C69.0625 4.73215 70.6473 6.38393 70.6473 8.68304C70.6473 10.5134 69.5089 11.7188 68.3482 12.2321L71.0044 17.0982H67.7009ZM65.9375 7.3884H63.1473V10.4464H65.9375C66.8973 10.4464 67.6339 9.86608 67.6339 8.90625C67.6562 7.90179 66.8973 7.3884 65.9375 7.3884Z" fill="#151E34"/>
<path d="M85.7143 17.0982V4.73215H90.8259C94.9554 4.73215 97.1652 7.41072 97.1652 10.9152C97.1652 14.4196 94.9554 17.0982 90.8259 17.0982H85.7143ZM90.8482 14.442C93.0134 14.442 94.1295 13.0804 94.1295 10.8929C94.1295 8.72768 93.0134 7.36608 90.8482 7.36608H88.683V14.4643H90.8482V14.442Z" fill="#151E34"/>
<path d="M98.4821 17.0982V4.73215H107.924V7.3884H101.429V9.48661H107.076V11.8304H101.429V14.4643H108.103V17.0982H98.4821Z" fill="#151E34"/>
<path d="M81.1384 17.0982H84.442L79.8884 4.73215H76.317L71.7188 17.0982H74.9554L78.0357 7.1875L80.4241 14.9107L81.1384 17.0982Z" fill="#151E34"/>
<path d="M58.5491 24.9554L56.3393 26.317C55.6027 25.2679 54.4197 24.8437 53.2366 24.8437C52.1875 24.8437 51.4509 25.2232 51.4509 26.0268C51.4509 26.9196 52.6339 27.1205 53.9732 27.3661C56.5625 27.8348 58.7723 28.6161 58.7723 31.1607C58.7723 33.5045 56.875 35.2679 53.5714 35.2679C50.8929 35.2679 48.817 34.1295 47.8348 32.1652L50.1563 30.9375C50.9822 32.3438 52.3214 32.8571 53.7054 32.8571C55 32.8571 55.8706 32.3661 55.8706 31.5625C55.8706 30.5134 54.6652 30.3348 53.192 30.0893C50.6697 29.6429 48.5491 28.8393 48.5491 26.2277C48.5491 23.8839 50.4911 22.4554 53.3482 22.4554C55.2679 22.433 57.2991 23.125 58.5491 24.9554Z" fill="#151E34"/>
<path d="M71.5849 35.0223V25.7813L68.5715 35.0223H66.1831L63.192 25.8482V35.0223H60.3125V22.6562H64.5759L67.3884 31.3393L70.2009 22.6562H74.442V35.0223C74.4866 35.0223 71.5849 35.0223 71.5849 35.0223Z" fill="#151E34"/>
<path d="M96.6741 35.0223L94.4643 30.7366H92.1652V35.0223H89.1741V22.6562H95C98.0581 22.6562 99.6429 24.308 99.6429 26.6071C99.6429 28.4375 98.5045 29.6429 97.3438 30.1563L100 35.0223C100.022 35.0223 96.6741 35.0223 96.6741 35.0223ZM94.9331 25.3125H92.1429V28.3705H94.9331C95.8929 28.3705 96.6295 27.7902 96.6295 26.8304C96.6295 25.8482 95.8929 25.3125 94.9331 25.3125Z" fill="#151E34"/>
<path d="M107.21 25.3125V35.0223H104.241V25.3125H100.402V22.6562H111.049V25.3125H107.21Z" fill="#151E34"/>
<path d="M84.8661 35.0223H88.1697L83.5938 22.6562H80.067L75.4688 35.0223H78.7054L81.7857 25.1339L84.1741 32.8571L84.8661 35.0223Z" fill="#151E34"/>
</g>
<defs>
<clipPath id="clip0_33310_1661">
<rect width="111.049" height="40" fill="white"/>
</clipPath>
</defs>
</svg>
