<svg width="12" height="14" viewBox="0 0 12 14" fill="none" xmlns="http://www.w3.org/2000/svg">
<path d="M6.66692 12.501L6.66693 2.61764L10.3003 5.64264C10.4704 5.78409 10.6898 5.85214 10.9102 5.83183C11.1306 5.81151 11.3338 5.70449 11.4753 5.53431C11.6167 5.36413 11.6848 5.14473 11.6644 4.92437C11.6441 4.70402 11.5371 4.50076 11.3669 4.35931L6.36693 0.192643C6.32716 0.16461 6.28538 0.139542 6.24193 0.117643C6.20026 0.117643 6.17526 0.117643 6.13359 0.0593098C6.03804 0.0215377 5.93633 0.00176058 5.83359 0.000976307C5.73085 0.00176057 5.62914 0.0215377 5.53359 0.0593098C5.49193 0.0593098 5.46693 0.0593095 5.42526 0.117643C5.38181 0.139542 5.34003 0.16461 5.30026 0.192643L0.300259 4.35931C0.206191 4.43766 0.13054 4.53578 0.0786884 4.64668C0.0268371 4.75758 5.98683e-05 4.87855 0.000258227 5.00098C-0.000122297 5.19569 0.0676906 5.38438 0.191925 5.53431C0.261883 5.61869 0.3478 5.68844 0.444756 5.73957C0.541713 5.7907 0.647801 5.82219 0.756948 5.83226C0.866095 5.84232 0.976156 5.83075 1.08083 5.79821C1.1855 5.76568 1.28272 5.71281 1.36692 5.64264L5.00026 2.61764L5.00026 12.501C5.00026 12.722 5.08806 12.934 5.24434 13.0902C5.40062 13.2465 5.61258 13.3343 5.83359 13.3343C6.0546 13.3343 6.26657 13.2465 6.42285 13.0902C6.57913 12.934 6.66692 12.722 6.66692 12.501Z" fill="#3F71EB"/>
</svg>
