<svg width="12" height="14" viewBox="0 0 12 14" fill="none" xmlns="http://www.w3.org/2000/svg">
<path d="M6.66692 12.5005L6.66693 2.61715L10.3003 5.64215C10.4704 5.7836 10.6898 5.85165 10.9102 5.83134C11.1306 5.81102 11.3338 5.704 11.4753 5.53382C11.6167 5.36364 11.6848 5.14424 11.6644 4.92388C11.6441 4.70353 11.5371 4.50027 11.3669 4.35882L6.36693 0.192155C6.32716 0.164122 6.28538 0.139054 6.24193 0.117155C6.20026 0.117155 6.17526 0.117155 6.13359 0.0588215C6.03804 0.0210494 5.93633 0.0012723 5.83359 0.000488026C5.73085 0.00127229 5.62914 0.0210494 5.53359 0.0588215C5.49193 0.0588215 5.46693 0.0588212 5.42526 0.117155C5.38181 0.139054 5.34003 0.164122 5.30026 0.192155L0.300259 4.35882C0.206191 4.43717 0.13054 4.53529 0.0786884 4.64619C0.0268371 4.7571 5.98683e-05 4.87806 0.000258227 5.00049C-0.000122297 5.1952 0.0676906 5.38389 0.191925 5.53382C0.261883 5.6182 0.3478 5.68795 0.444756 5.73908C0.541713 5.79021 0.647801 5.8217 0.756948 5.83177C0.866095 5.84183 0.976156 5.83026 1.08083 5.79773C1.1855 5.76519 1.28272 5.71232 1.36692 5.64215L5.00026 2.61715L5.00026 12.5005C5.00026 12.7215 5.08806 12.9335 5.24434 13.0897C5.40062 13.246 5.61258 13.3338 5.83359 13.3338C6.0546 13.3338 6.26657 13.246 6.42285 13.0897C6.57913 12.9335 6.66692 12.7215 6.66692 12.5005Z" fill="#EAEAEA"/>
</svg>
