<svg width="24" height="20" viewBox="0 0 24 20" fill="none" xmlns="http://www.w3.org/2000/svg">
<path d="M13 14.5C13 13.0413 13.5795 11.6424 14.6109 10.6109C15.6424 9.57946 17.0413 9 18.5 9C19.9587 9 21.3576 9.57946 22.3891 10.6109C23.4205 11.6424 24 13.0413 24 14.5C24 15.9587 23.4205 17.3576 22.3891 18.3891C21.3576 19.4205 19.9587 20 18.5 20C17.0413 20 15.6424 19.4205 14.6109 18.3891C13.5795 17.3576 13 15.9587 13 14.5ZM21.0705 12.8462C20.8337 12.6094 20.4441 12.6094 20.2073 12.8462L17.8889 15.1646L16.7927 14.0684C16.5559 13.8316 16.1663 13.8316 15.9295 14.0684C15.6927 14.3052 15.6927 14.6948 15.9295 14.9316L17.4573 16.4594C17.6941 16.6962 18.0837 16.6962 18.3205 16.4594L21.0705 13.7094C21.3073 13.4726 21.3073 13.083 21.0705 12.8462Z" fill="#777777"/>
<path fill-rule="evenodd" clip-rule="evenodd" d="M12.2855 8.53553C11.3479 9.47322 10.0761 10 8.75 10C7.42392 10 6.15215 9.47322 5.21447 8.53553C4.27678 7.59785 3.75 6.32608 3.75 5C3.75 3.67392 4.27678 2.40215 5.21447 1.46447C6.15215 0.526784 7.42392 0 8.75 0C10.0761 0 11.3479 0.526784 12.2855 1.46447C13.2232 2.40215 13.75 3.67392 13.75 5C13.75 6.32608 13.2232 7.59785 12.2855 8.53553ZM0 18.8398C0 14.9922 3.11719 11.875 6.96484 11.875H10.5352C10.8454 11.875 11.1508 11.8953 11.4503 11.9345C11.1589 12.7349 11 13.5989 11 14.5C11 16.6731 11.9242 18.6303 13.4009 20H1.16016C0.519531 20 0 19.4805 0 18.8398Z" fill="#777777"/>
</svg>
