<svg width="16" height="16" viewBox="0 0 16 16" fill="none" xmlns="http://www.w3.org/2000/svg">
<path d="M15.7142 14.335L11.6169 10.2367C11.5776 10.1938 11.5704 10.1295 11.6026 10.0831C12.342 9.03975 12.7779 7.76775 12.7779 6.38857C12.7779 2.86199 9.9165 0 6.38714 0C2.86135 0 0 2.86199 0 6.38857C0 9.91871 2.86135 12.7771 6.38714 12.7771C7.76245 12.7771 9.03773 12.3412 10.0808 11.6016C10.1273 11.5695 10.1916 11.573 10.2344 11.6159L14.3211 15.7034C14.6997 16.0822 15.3177 16.1 15.6999 15.7285C16.0965 15.3497 16.1 14.7209 15.7142 14.335ZM10.1237 9.1255C9.84506 9.50782 9.50569 9.84725 9.12347 10.1259C8.35544 10.6869 7.41237 11.0192 6.38714 11.0192C3.82943 11.0192 1.75754 8.94685 1.75754 6.38857C1.75754 3.83028 3.82943 1.75793 6.38714 1.75793C8.94485 1.75793 11.0167 3.83028 11.0167 6.38857C11.0167 7.41402 10.6845 8.3573 10.1237 9.1255Z" fill="#949494"/>
</svg>
