<svg width="16" height="16" viewBox="0 0 16 16" fill="none" xmlns="http://www.w3.org/2000/svg">
<path d="M13.8475 6.8112L13.8476 6.81202C13.9594 7.70645 14.2575 8.56676 14.7214 9.33877L15.15 9.08125L14.7211 9.33829C15.2308 10.1887 15.5 11.1624 15.5 12.1531V14C15.5 14.277 15.277 14.5 15 14.5H11C10.723 14.5 10.5 14.277 10.5 14V4.5H13.1187C13.3714 4.5 13.5852 4.68889 13.6163 4.9367C13.6163 4.9368 13.6163 4.93691 13.6164 4.93702L13.8475 6.8112ZM4 1.5H5C5.27698 1.5 5.5 1.72302 5.5 2V2.5H3.5V2C3.5 1.72302 3.72302 1.5 4 1.5ZM5.5 4.5V14C5.5 14.277 5.27698 14.5 5 14.5H1C0.723017 14.5 0.5 14.277 0.5 14V12.1531C0.5 11.1625 0.769112 10.189 1.27865 9.33866C1.7425 8.56667 2.04059 7.70641 2.15239 6.81202L2.38676 4.93702C2.41788 4.68809 2.62942 4.5 2.88438 4.5H5.5ZM10.5 2C10.5 1.72302 10.723 1.5 11 1.5H12C12.277 1.5 12.5 1.72302 12.5 2V2.5H10.5V2ZM8.5 4.5V8.5H7.5V4.5H8.5Z" stroke="#3F71EB"/>
</svg>
