<svg width="18" height="18" viewBox="0 0 18 18" fill="none" xmlns="http://www.w3.org/2000/svg">
<path d="M9.00069 1C-1.66874 1.32914 -1.66505 16.6709 9.00069 17C19.6701 16.6672 19.6627 1.33646 9.00069 1ZM9.00069 16.36C-0.816221 16.0565 -0.812531 1.94354 9.00069 1.64C18.8176 1.9472 18.8102 16.0491 9.00069 16.36ZM13.1969 9.00183C13.2006 9.17737 13.0456 9.32 12.8721 9.33097H8.997C8.81985 9.32 8.67223 9.17737 8.66485 9.00183V3.24183C8.67961 2.82857 9.31439 2.82491 9.32915 3.24183V8.67269H12.8721C13.0492 8.68366 13.2006 8.82263 13.1969 9.00183Z" fill="#949494" stroke="#949494" stroke-miterlimit="10"/>
</svg>
