<svg width="16" height="16" viewBox="0 0 16 16" fill="none" xmlns="http://www.w3.org/2000/svg">
<path d="M5.3 14V4.7H2.88438C2.72994 4.7 2.60378 4.81332 2.58522 4.96182L2.35084 6.83682C2.2356 7.75877 1.92838 8.64545 1.45042 9.4411L5.3 14ZM5.3 14C5.3 14.1665 5.16653 14.3 5 14.3M5.3 14L5 14.3M5 14.3H1M5 14.3H1M1 14.3C0.833474 14.3 0.7 14.1665 0.7 14M1 14.3L0.7 14M0.7 14V12.1531M0.7 14V12.1531M0.7 12.1531C0.7 11.1986 0.959346 10.2605 1.45036 9.4412L0.7 12.1531ZM13.649 6.83568L13.6492 6.83682C13.7644 7.75903 14.0718 8.64596 14.55 9.44178L15.15 9.08125L14.5496 9.4411C15.0406 10.2604 15.3 11.1986 15.3 12.1531V14C15.3 14.1665 15.1665 14.3 15 14.3H11C10.8335 14.3 10.7 14.1665 10.7 14V4.7H13.1187C13.2712 4.7 13.3992 4.81438 13.4178 4.96127C13.4179 4.96146 13.4179 4.96164 13.4179 4.96182L13.649 6.83568ZM4 1.7H5C5.16653 1.7 5.3 1.83347 5.3 2V2.3H3.7V2C3.7 1.83347 3.83347 1.7 4 1.7ZM10.7 2C10.7 1.83347 10.8335 1.7 11 1.7H12C12.1665 1.7 12.3 1.83347 12.3 2V2.3H10.7V2ZM8.3 4.7V8.3H7.7V4.7H8.3Z" stroke="#555555" stroke-width="1.4"/>
</svg>
