<svg width="16" height="16" viewBox="0 0 16 16" fill="none" xmlns="http://www.w3.org/2000/svg">
<path d="M13.649 6.83568L13.6492 6.83682C13.7644 7.75903 14.0718 8.64596 14.55 9.44178L15.1498 9.08134L14.5496 9.4411C15.0406 10.2604 15.3 11.1986 15.3 12.1531V14C15.3 14.1665 15.1665 14.3 15 14.3H11C10.8335 14.3 10.7 14.1665 10.7 14V4.7H13.1187C13.2713 4.7 13.3993 4.81446 13.4179 4.96141C13.4179 4.96155 13.4179 4.96169 13.4179 4.96182L13.649 6.83568ZM10.7 2C10.7 1.83347 10.8335 1.7 11 1.7H12C12.1665 1.7 12.3 1.83347 12.3 2V2.3H10.7V2Z" stroke="#555555" stroke-width="1.4"/>
<path d="M2.35099 6.83568L2.35084 6.83682C2.23557 7.75903 1.9282 8.64596 1.45001 9.44178L0.850154 9.08134L1.45042 9.4411C0.959367 10.2604 0.7 11.1986 0.7 12.1531V14C0.7 14.1665 0.833474 14.3 1 14.3H5C5.16653 14.3 5.3 14.1665 5.3 14V4.7H2.88125C2.72872 4.7 2.60073 4.81446 2.58215 4.96141C2.58213 4.96155 2.58211 4.96169 2.58209 4.96182L2.35099 6.83568ZM5.3 2C5.3 1.83347 5.16653 1.7 5 1.7H4C3.83347 1.7 3.7 1.83347 3.7 2V2.3H5.3V2Z" stroke="#555555" stroke-width="1.4"/>
<path d="M8.3 4.7V8.3H7.7V4.7H8.3Z" stroke="#555555" stroke-width="1.4"/>
</svg>
