<svg width="9" height="9" viewBox="0 0 9 9" fill="none" xmlns="http://www.w3.org/2000/svg">
<path d="M0.252 9L3.06 4.392L0.432 0.162H2.664L3.654 1.836C3.786 2.076 3.918 2.328 4.05 2.592C4.194 2.844 4.332 3.09 4.464 3.33H4.536C4.644 3.09 4.758 2.844 4.878 2.592C4.998 2.328 5.112 2.076 5.22 1.836L6.066 0.162H8.208L5.598 4.626L8.406 9H6.174L5.094 7.254C4.95 6.99 4.8 6.726 4.644 6.462C4.5 6.198 4.35 5.94 4.194 5.688H4.122C3.99 5.94 3.858 6.198 3.726 6.462C3.606 6.714 3.48 6.978 3.348 7.254L2.412 9H0.252Z" fill="#949494"/>
</svg>
